<svg xmlns="http://www.w3.org/2000/svg" width="101" height="32" viewBox="0 0 101 32" fill="none"><g clip-path="url(#clip0)"><path d="M6.46514 0H19.3929L12.9278 11.4289H23.703L6.46514 32L10.7728 18.2868H0L6.46514 0ZM34.9752 23.4658H30.1559L34.2741 4.96738H47.9719L47.0469 9.12738H38.166L37.5509 12.0123H46.208L45.283 16.1723H36.5989L34.9752 23.4658V23.4658ZM58.2674 23.8006C52.5255 23.8006 49.6964 21.0806 49.6964 17.1988C49.6964 16.8935 49.7801 16.256 49.8367 15.9778L52.3017 4.96738H57.2022L54.7667 15.8671C54.7372 16.0074 54.683 16.3102 54.683 16.6449C54.7101 18.1711 55.8885 19.6406 58.2674 19.6406C60.8456 19.6406 62.1617 18.0308 62.6365 15.8671L65.0745 4.96738H69.948L67.5125 15.9508C66.5038 20.4431 64.0388 23.8006 58.2674 23.8006V23.8006ZM83.1587 23.4658H70.8336L74.9493 4.96738H79.7687L76.6025 19.3058H84.0812L83.1587 23.4658V23.4658ZM99.5872 23.4658H87.2621L91.3803 4.96738H96.1997L93.0335 19.3058H100.512L99.5872 23.4658V23.4658Z" fill="#00A650"></path></g><defs><clipPath id="clip0"><rect width="100.864" height="32" fill="white"></rect></clipPath></defs></svg>