<svg width="110" height="20" viewBox="0 0 110 20" fill="none" xmlns="http://www.w3.org/2000/svg">
<path d="M109.92 7.06025C109.894 6.98307 109.847 6.91484 109.783 6.86369C109.72 6.81255 109.643 6.78062 109.562 6.77173L102.62 5.88921L99.7108 0.356508C99.6763 0.286381 99.6232 0.227093 99.5571 0.185171C99.4911 0.143249 99.4147 0.12032 99.3364 0.118908C99.2577 0.118312 99.1805 0.140421 99.1141 0.182575C99.0477 0.224729 98.9949 0.28513 98.9621 0.356508L96.0185 5.9571L89.0594 6.83962C88.9815 6.85151 88.9083 6.8848 88.8482 6.93574C88.7882 6.98669 88.7435 7.0533 88.7191 7.12813C88.6926 7.20379 88.6881 7.28539 88.7062 7.36348C88.7243 7.44157 88.7641 7.51297 88.8212 7.56939L93.7215 12.3554L92.5985 18.7536C92.5867 18.8305 92.5963 18.9092 92.6263 18.9811C92.6563 19.0529 92.7056 19.1151 92.7687 19.1609C92.8433 19.214 92.9322 19.2435 93.0239 19.2458C93.0854 19.2609 93.1496 19.2609 93.2111 19.2458L99.3364 16.2079L105.462 19.2458C105.527 19.2903 105.604 19.3141 105.683 19.3141C105.762 19.3141 105.839 19.2903 105.904 19.2458C105.966 19.1993 106.013 19.1363 106.04 19.0642C106.067 18.9921 106.073 18.9138 106.057 18.8385L104.951 12.4402L109.852 7.65425C109.932 7.57976 109.984 7.47884 109.996 7.36984C110.009 7.26084 109.982 7.15099 109.92 7.06025V7.06025ZM104.152 11.8292C104.104 11.8781 104.069 11.9372 104.048 12.002C104.028 12.0668 104.022 12.1354 104.033 12.2026L105.053 18.0069L99.7108 15.3593V2.2064L101.957 6.48322C101.988 6.54407 102.034 6.59617 102.09 6.63472C102.147 6.67327 102.212 6.69704 102.28 6.70384L108.576 7.5015L104.152 11.8292Z" fill="url(#paint0_linear)"/>
<path d="M87.6974 7.50185L82.7971 12.2878L83.903 18.686C83.9187 18.7614 83.9127 18.8397 83.8856 18.9118C83.8584 18.9839 83.8114 19.0469 83.7499 19.0934C83.6848 19.1379 83.6077 19.1617 83.5287 19.1617C83.4498 19.1617 83.3726 19.1379 83.3075 19.0934L77.1821 16.0555L71.0568 19.0934C70.9953 19.1085 70.9311 19.1085 70.8696 19.0934C70.7779 19.0911 70.689 19.0616 70.6144 19.0085C70.5513 18.9627 70.502 18.9005 70.472 18.8286C70.442 18.7568 70.4324 18.6781 70.4442 18.6012L71.5672 12.2029L66.6669 7.50185C66.6099 7.44542 66.57 7.37403 66.5519 7.29594C66.5338 7.21784 66.5383 7.13625 66.5648 7.06059C66.5892 6.98576 66.6339 6.91915 66.694 6.8682C66.754 6.81725 66.8272 6.78397 66.9051 6.77207L73.8642 5.88955L76.8078 0.288967C76.8396 0.216293 76.8919 0.154443 76.9584 0.111007C77.0249 0.0675705 77.1026 0.0444336 77.1821 0.0444336C77.2616 0.0444336 77.3394 0.0675705 77.4059 0.111007C77.4724 0.154443 77.5247 0.216293 77.5565 0.288967L80.5001 5.88955L87.4421 6.77207C87.5232 6.78097 87.5999 6.81289 87.6632 6.86404C87.7266 6.91518 87.7739 6.98341 87.7995 7.06059C87.8222 7.13666 87.8248 7.21732 87.8069 7.29467C87.789 7.37203 87.7512 7.44342 87.6974 7.50185V7.50185Z" fill="url(#paint1_linear)"/>
<path d="M65.4538 7.50165L60.5535 12.2876L61.7615 18.6859C61.7772 18.7612 61.7712 18.8395 61.7441 18.9116C61.717 18.9837 61.6699 19.0467 61.6084 19.0932C61.5433 19.1377 61.4662 19.1615 61.3872 19.1615C61.3083 19.1615 61.2312 19.1377 61.166 19.0932L54.9556 16.0892L48.8302 19.1271C48.7687 19.1422 48.7045 19.1422 48.643 19.1271C48.551 19.1271 48.4614 19.0973 48.3878 19.0423C48.3216 18.9994 48.2699 18.9376 48.2395 18.8649C48.2091 18.7922 48.2015 18.712 48.2177 18.6349L49.3406 12.2367L44.4403 7.45073C44.3833 7.39431 44.3434 7.32292 44.3253 7.24482C44.3073 7.16673 44.3118 7.08513 44.3383 7.00947C44.3626 6.93464 44.4073 6.86804 44.4674 6.81709C44.5275 6.76614 44.6006 6.73286 44.6786 6.72096L51.6377 5.83844L54.5812 0.237853C54.6122 0.16511 54.6645 0.10345 54.7314 0.0610254C54.7982 0.0186004 54.8764 -0.00259072 54.9556 0.000252912C55.0343 -0.000343356 55.1115 0.0217653 55.1779 0.0639193C55.2443 0.106073 55.2971 0.166475 55.3299 0.237853L58.3586 5.88935L65.3006 6.77187C65.3817 6.78077 65.4584 6.81269 65.5217 6.86384C65.5851 6.91498 65.6324 6.98321 65.658 7.06039C65.671 7.1458 65.6586 7.23314 65.6223 7.31158C65.586 7.39002 65.5274 7.45611 65.4538 7.50165V7.50165Z" fill="url(#paint2_linear)"/>
<path d="M43.2858 7.50174L38.3855 12.2877L39.5085 18.6859C39.5274 18.7645 39.5226 18.8469 39.4944 18.9226C39.4663 18.9984 39.4162 19.0641 39.3506 19.1114C39.2849 19.1587 39.2066 19.1855 39.1257 19.1883C39.0447 19.1911 38.9648 19.1698 38.896 19.1272L32.7876 16.0893L26.6622 19.1272H26.4751C26.383 19.1272 26.2935 19.0974 26.2198 19.0423C26.1536 18.9995 26.1019 18.9377 26.0715 18.865C26.0412 18.7923 26.0336 18.7121 26.0497 18.635L27.1727 12.2368L22.2724 7.45082C22.2153 7.3944 22.1754 7.32301 22.1574 7.24491C22.1393 7.16682 22.1438 7.08522 22.1703 7.00956C22.1946 6.93473 22.2393 6.86813 22.2994 6.81718C22.3595 6.76623 22.4326 6.73295 22.5106 6.72105L29.4527 5.83853L32.3963 0.237945C32.432 0.165222 32.4878 0.104204 32.5571 0.0621023C32.6265 0.0200004 32.7064 -0.00142629 32.7876 0.000345806C32.8659 0.00175742 32.9422 0.0246861 33.0083 0.0666083C33.0743 0.10853 33.1275 0.167819 33.1619 0.237945L36.1055 5.83853L43.0476 6.72105C43.1286 6.72994 43.2054 6.76187 43.2687 6.81301C43.332 6.86416 43.3793 6.93238 43.4049 7.00956C43.4381 7.09387 43.4445 7.18633 43.4232 7.27438C43.4019 7.36244 43.3539 7.44181 43.2858 7.50174V7.50174Z" fill="url(#paint3_linear)"/>
<path d="M21.1452 7.50185L16.2449 12.2878L17.3679 18.6861C17.384 18.7631 17.3764 18.8433 17.3461 18.916C17.3157 18.9887 17.264 19.0505 17.1977 19.0934C17.1294 19.1461 17.0459 19.1758 16.9595 19.1782H16.7554L10.647 16.1403L4.52163 19.1782C4.45283 19.2209 4.37287 19.2421 4.29192 19.2393C4.21097 19.2365 4.13269 19.2098 4.06703 19.1625C4.00137 19.1152 3.95129 19.0494 3.92317 18.9737C3.89504 18.8979 3.89014 18.8155 3.90909 18.737L5.03208 12.3387L0.131778 7.50185C0.0708797 7.44802 0.0283195 7.37658 0.0100219 7.2975C-0.00827573 7.21841 -0.00140132 7.1356 0.0296878 7.0606C0.0540188 6.98577 0.0987284 6.91915 0.158822 6.8682C0.218915 6.81726 0.292024 6.78397 0.369986 6.77208L7.31208 5.88956L10.2386 0.288971C10.2743 0.216247 10.3302 0.15523 10.3995 0.113128C10.4689 0.0710258 10.5488 0.0495991 10.63 0.0513712C10.7083 0.0527828 10.7846 0.0757115 10.8507 0.117634C10.9167 0.159556 10.9699 0.218844 11.0043 0.288971L13.9479 5.88956L20.89 6.77208C20.9703 6.78289 21.0462 6.81552 21.1092 6.86641C21.1722 6.91729 21.22 6.98446 21.2473 7.0606C21.2718 7.13648 21.2753 7.21759 21.2573 7.29528C21.2394 7.37298 21.2006 7.44436 21.1452 7.50185V7.50185Z" fill="url(#paint4_linear)"/>
<defs>
<linearGradient id="paint0_linear" x1="99.3472" y1="0.118896" x2="99.3472" y2="19.3141" gradientUnits="userSpaceOnUse">
<stop stop-color="#FFC32B"/>
<stop offset="1" stop-color="#FFE600"/>
</linearGradient>
<linearGradient id="paint1_linear" x1="77.1798" y1="0.0444336" x2="77.1798" y2="19.1617" gradientUnits="userSpaceOnUse">
<stop stop-color="#FFC32B"/>
<stop offset="1" stop-color="#FFE600"/>
</linearGradient>
<linearGradient id="paint2_linear" x1="54.9887" y1="0" x2="54.9887" y2="19.1615" gradientUnits="userSpaceOnUse">
<stop stop-color="#FFC32B"/>
<stop offset="1" stop-color="#FFE600"/>
</linearGradient>
<linearGradient id="paint3_linear" x1="32.791" y1="0.000244141" x2="32.791" y2="19.1885" gradientUnits="userSpaceOnUse">
<stop stop-color="#FFC32B"/>
<stop offset="1" stop-color="#FFE600"/>
</linearGradient>
<linearGradient id="paint4_linear" x1="10.6343" y1="0.0512695" x2="10.6343" y2="19.2396" gradientUnits="userSpaceOnUse">
<stop stop-color="#FFC32B"/>
<stop offset="1" stop-color="#FFE600"/>
</linearGradient>
</defs>
</svg>
