<svg width="100" height="18" viewBox="0 0 100 18" fill="none" xmlns="http://www.w3.org/2000/svg">
<path d="M99.9016 6.87181L95.457 11.2127L96.4755 17.016C96.4863 17.0857 96.4775 17.1571 96.4503 17.2223C96.4231 17.2874 96.3784 17.3439 96.3212 17.3854C96.2535 17.4335 96.1729 17.4603 96.0897 17.4624C96.034 17.4761 95.9757 17.4761 95.92 17.4624L90.3642 14.707L84.8084 17.4624C84.7494 17.5028 84.6794 17.5244 84.6078 17.5244C84.5362 17.5244 84.4663 17.5028 84.4072 17.4624C84.3514 17.4202 84.3087 17.3631 84.2841 17.2977C84.2596 17.2323 84.2541 17.1613 84.2683 17.0929L85.2714 11.2897L80.8268 6.94878C80.7779 6.89578 80.7437 6.83103 80.7275 6.76087C80.7112 6.69071 80.7135 6.61755 80.7342 6.54855C80.7574 6.47855 80.8003 6.41667 80.8578 6.37028C80.9152 6.32388 80.9848 6.29493 81.0583 6.28686L87.3548 5.48641L90.0247 0.406636C90.0577 0.345543 90.1067 0.294511 90.1665 0.258942C90.2263 0.223372 90.2946 0.20459 90.3642 0.20459C90.4338 0.20459 90.5021 0.223372 90.5619 0.258942C90.6216 0.294511 90.6707 0.345543 90.7037 0.406636L93.3736 5.48641L99.6855 6.28686C99.7562 6.29765 99.8226 6.32784 99.8771 6.37405C99.9316 6.42026 99.9721 6.48068 99.9942 6.54855C100.004 6.60591 100.001 6.6648 99.9852 6.7208C99.9691 6.77679 99.9405 6.82843 99.9016 6.87181Z" fill="url(#paint0_linear)"/>
<path d="M79.7319 6.87188L75.2873 11.2128L76.3059 17.016C76.3166 17.0858 76.3079 17.1572 76.2807 17.2224C76.2534 17.2875 76.2088 17.344 76.1516 17.3855C76.0838 17.4336 76.0032 17.4604 75.9201 17.4625C75.8646 17.4783 75.8058 17.4783 75.7503 17.4625L70.1945 14.7071L64.6388 17.4625C64.5797 17.5028 64.5098 17.5244 64.4382 17.5244C64.3665 17.5244 64.2966 17.5028 64.2375 17.4625C64.1827 17.4188 64.1398 17.3621 64.1129 17.2975C64.0859 17.2329 64.0757 17.1626 64.0832 17.093L65.1018 11.2897L60.6572 6.87188C60.6054 6.8207 60.5692 6.75595 60.5528 6.68511C60.5365 6.61428 60.5405 6.54028 60.5646 6.47165C60.5878 6.40165 60.6307 6.33977 60.6881 6.29338C60.7456 6.24699 60.8152 6.21803 60.8886 6.20996L67.1852 5.40951L69.855 0.329732C69.8881 0.268639 69.9371 0.217601 69.9969 0.182032C70.0566 0.146462 70.1249 0.127686 70.1945 0.127686C70.2641 0.127686 70.3324 0.146462 70.3922 0.182032C70.452 0.217601 70.501 0.268639 70.5341 0.329732L73.2039 5.40951L79.5159 6.20996C79.5866 6.22075 79.6529 6.25094 79.7074 6.29715C79.7619 6.34336 79.8025 6.40378 79.8245 6.47165C79.8486 6.54028 79.8526 6.61428 79.8362 6.68511C79.8199 6.75595 79.7837 6.8207 79.7319 6.87188V6.87188Z" fill="url(#paint1_linear)"/>
<path d="M59.4956 6.87185L55.051 11.2128L56.1313 17.016C56.1403 17.0715 56.1371 17.1282 56.1217 17.1823C56.1064 17.2363 56.0795 17.2864 56.0427 17.3289C56.0059 17.3714 55.9603 17.4054 55.9089 17.4285C55.8576 17.4516 55.8018 17.4632 55.7455 17.4624C55.69 17.4783 55.6312 17.4783 55.5757 17.4624L49.9582 14.6609L44.4025 17.4162C44.3434 17.4566 44.2734 17.4782 44.2018 17.4782C44.1302 17.4782 44.0603 17.4566 44.0012 17.4162C43.9464 17.3726 43.9035 17.3159 43.8765 17.2513C43.8496 17.1867 43.8394 17.1164 43.8469 17.0468L44.8654 11.2435L40.4208 6.90264C40.3691 6.85146 40.3329 6.78671 40.3165 6.71588C40.3001 6.64505 40.3042 6.57103 40.3282 6.50241C40.3514 6.43241 40.3943 6.37053 40.4518 6.32414C40.5092 6.27775 40.5788 6.24879 40.6523 6.24073L46.9489 5.44027L49.6187 0.360493C49.6518 0.299401 49.7008 0.248363 49.7606 0.212793C49.8203 0.177223 49.8886 0.158447 49.9582 0.158447C50.0278 0.158447 50.0961 0.177223 50.1559 0.212793C50.2157 0.248363 50.2647 0.299401 50.2977 0.360493L53.0448 5.40949L59.3413 6.20994C59.4148 6.21801 59.4844 6.24696 59.5418 6.29335C59.5993 6.33974 59.6422 6.40162 59.6654 6.47163C59.6808 6.54763 59.6729 6.62651 59.6426 6.69793C59.6123 6.76934 59.5611 6.82997 59.4956 6.87185V6.87185Z" fill="url(#paint2_linear)"/>
<path d="M39.3374 6.87178L34.8928 11.2127L35.9114 17.016C35.9189 17.0855 35.9087 17.1558 35.8817 17.2204C35.8547 17.285 35.8119 17.3417 35.757 17.3854C35.6882 17.4312 35.6082 17.4578 35.5256 17.4624C35.4701 17.4782 35.4113 17.4782 35.3558 17.4624L29.8 14.707L24.2443 17.4624C24.1852 17.5027 24.1152 17.5243 24.0436 17.5243C23.972 17.5243 23.9021 17.5027 23.843 17.4624C23.7858 17.4208 23.7411 17.3644 23.7139 17.2992C23.6867 17.2341 23.678 17.1627 23.6887 17.0929L24.7072 11.2896L20.2626 6.94875C20.2109 6.89757 20.1747 6.83281 20.1583 6.76198C20.1419 6.69115 20.146 6.61715 20.17 6.54852C20.1921 6.48065 20.2326 6.42023 20.2872 6.37402C20.3417 6.32781 20.408 6.29762 20.4787 6.28683L26.7907 5.48638L29.4605 0.406603C29.4893 0.340687 29.5368 0.284594 29.5971 0.245197C29.6574 0.2058 29.7279 0.184814 29.8 0.184814C29.8721 0.184814 29.9426 0.2058 30.003 0.245197C30.0633 0.284594 30.1107 0.340687 30.1395 0.406603L32.8094 5.48638L39.1059 6.28683C39.1794 6.2949 39.249 6.32385 39.3065 6.37025C39.3639 6.41664 39.4068 6.47852 39.43 6.54852C39.4401 6.60588 39.437 6.66477 39.421 6.72077C39.4049 6.77676 39.3764 6.8284 39.3374 6.87178Z" fill="url(#paint3_linear)"/>
<path d="M19.189 6.87184L14.7444 11.2127L15.7475 17.016C15.7617 17.0844 15.7562 17.1554 15.7316 17.2208C15.707 17.2862 15.6644 17.3433 15.6086 17.3854C15.5397 17.4313 15.4598 17.4579 15.3771 17.4624C15.3216 17.4782 15.2628 17.4782 15.2074 17.4624L9.65158 14.707L4.09582 17.4624C4.03674 17.5028 3.96681 17.5244 3.89519 17.5244C3.82358 17.5244 3.75365 17.5028 3.69457 17.4624C3.63735 17.4209 3.59269 17.3644 3.56547 17.2993C3.53825 17.2341 3.52952 17.1627 3.54024 17.093L4.5588 11.2897L0.114188 6.87184C0.0624329 6.82066 0.0262676 6.75591 0.00988035 6.68508C-0.00650691 6.61425 -0.00244656 6.54024 0.0215913 6.47162C0.0436596 6.40375 0.0842116 6.34333 0.138717 6.29712C0.193222 6.25091 0.259533 6.22072 0.330245 6.20993L6.64221 5.40948L9.2812 0.329704C9.31001 0.263788 9.35748 0.20769 9.41779 0.168293C9.4781 0.128896 9.54863 0.10791 9.62072 0.10791C9.69281 0.10791 9.76334 0.128896 9.82365 0.168293C9.88396 0.20769 9.93143 0.263788 9.96024 0.329704L12.6301 5.40948L18.9266 6.20993C19.0001 6.218 19.0697 6.24695 19.1272 6.29334C19.1846 6.33974 19.2275 6.40162 19.2507 6.47162C19.2755 6.53805 19.2828 6.60969 19.272 6.67974C19.2612 6.74979 19.2326 6.81592 19.189 6.87184Z" fill="url(#paint4_linear)"/>
<defs>
<linearGradient id="paint0_linear" x1="90.3584" y1="0.20459" x2="90.3584" y2="17.5244" gradientUnits="userSpaceOnUse">
<stop stop-color="#FFB700"/>
<stop offset="1" stop-color="#FFE600"/>
</linearGradient>
<linearGradient id="paint1_linear" x1="70.1945" y1="0.127686" x2="70.1945" y2="17.5244" gradientUnits="userSpaceOnUse">
<stop stop-color="#FFB700"/>
<stop offset="1" stop-color="#FFE600"/>
</linearGradient>
<linearGradient id="paint2_linear" x1="49.9898" y1="0.158447" x2="49.9898" y2="17.4782" gradientUnits="userSpaceOnUse">
<stop stop-color="#FFB700"/>
<stop offset="1" stop-color="#FFE600"/>
</linearGradient>
<linearGradient id="paint3_linear" x1="29.7921" y1="0.184814" x2="29.7921" y2="17.5243" gradientUnits="userSpaceOnUse">
<stop stop-color="#FFB700"/>
<stop offset="1" stop-color="#FFE600"/>
</linearGradient>
<linearGradient id="paint4_linear" x1="9.63843" y1="0.10791" x2="9.63843" y2="17.5244" gradientUnits="userSpaceOnUse">
<stop stop-color="#FFB700"/>
<stop offset="1" stop-color="#FFE600"/>
</linearGradient>
</defs>
</svg>
