<svg width="319" height="109" viewBox="0 0 319 109" fill="none" xmlns="http://www.w3.org/2000/svg">
<g filter="url(#filter0_d)">
<rect x="9" y="5" width="297" height="60" rx="5" fill="url(#paint0_linear)"/>
<rect x="6.5" y="2.5" width="302" height="65" rx="7.5" stroke="#FFC828" stroke-width="5"/>
</g>
<g filter="url(#filter1_i)">
<path d="M39.79 39.1689C39.5 41.7148 38.5601 43.729 36.9702 45.2114C35.3911 46.6831 33.3877 47.3867 30.96 47.3223C28.876 47.2793 27.2646 46.5918 26.126 45.2598C24.9873 43.9277 24.3857 42.0801 24.3213 39.7168C24.2998 38.9111 24.3428 38.1001 24.4502 37.2837L25.0464 33.4004C25.5513 30.0811 26.6416 27.5405 28.3174 25.7788C30.0039 24.0171 32.0933 23.1631 34.5854 23.2168C36.7661 23.249 38.4419 23.9741 39.6128 25.3921C40.7837 26.7993 41.3691 28.8457 41.3691 31.5312L36.7124 31.5151L36.7446 29.9199C36.7124 28.1152 35.8691 27.186 34.2148 27.1323C32.9365 27.0894 31.9268 27.5566 31.1855 28.5342C30.4443 29.501 29.9448 31.0747 29.687 33.2554L29.1069 37.2998C28.9565 38.5889 28.876 39.4321 28.8652 39.8296C28.7578 42.1499 29.5742 43.3477 31.3145 43.4229C32.3994 43.4766 33.2642 43.1919 33.9087 42.5688C34.5532 41.9351 35.0044 40.8125 35.2622 39.2012L39.79 39.1689ZM49.6836 47.3223C47.6211 47.2793 45.9829 46.6025 44.769 45.292C43.5659 43.9814 42.9106 42.1606 42.8032 39.8296C42.7603 39.0239 42.7925 38.2075 42.8999 37.3804L43.4961 33.481C43.8076 31.397 44.4146 29.5493 45.3169 27.938C46.2192 26.3267 47.3418 25.1289 48.6846 24.3447C50.0273 23.5605 51.542 23.1846 53.2285 23.2168C55.3125 23.2598 56.9453 23.9741 58.127 25.3599C59.3193 26.7349 59.9585 28.6201 60.0444 31.0156C60.0659 31.918 60.0176 32.772 59.8994 33.5776L59.3677 37.1709C58.8843 40.3936 57.7939 42.9072 56.0967 44.7119C54.4102 46.5059 52.2725 47.376 49.6836 47.3223ZM55.2749 33.4165C55.4038 32.3101 55.4683 31.4561 55.4683 30.8545C55.4146 28.459 54.5498 27.229 52.874 27.1646C51.585 27.1108 50.543 27.5996 49.748 28.6309C48.9639 29.6514 48.416 31.2573 48.1045 33.4487L47.5405 37.3965C47.4116 38.46 47.3633 39.2925 47.3955 39.894C47.4492 42.1499 48.3354 43.3154 50.0542 43.3906C51.2788 43.4336 52.2832 42.9824 53.0674 42.0371C53.8516 41.0918 54.3994 39.5449 54.7109 37.3965L55.2749 33.4165ZM71.0981 23.5391L72.4678 40.4097L79.6704 23.5391H85.7612L81.6846 47H77.0439L78.1719 40.5063L80.2021 31.2412L73.0156 47H69.8735L68.1011 30.7095L66.7637 40.8125L65.7002 47H61.0757L65.1362 23.5391H71.0981ZM91.562 38.75L90.1279 47H85.5034L89.564 23.5391L97.0889 23.5552C99.1406 23.6196 100.747 24.3555 101.907 25.7627C103.078 27.1592 103.572 28.9639 103.389 31.1768C103.174 33.4756 102.304 35.3179 100.779 36.7036C99.2534 38.0786 97.3091 38.7661 94.9458 38.7661L91.562 38.75ZM92.2388 34.8022L95.2197 34.8345C96.3691 34.813 97.2607 34.3726 97.8945 33.5132C98.5283 32.6431 98.8291 31.4775 98.7969 30.0166C98.7754 29.2754 98.5981 28.6846 98.2651 28.2441C97.9321 27.8037 97.4702 27.562 96.8794 27.519L93.5117 27.4868L92.2388 34.8022ZM112.348 38.4277H109.996L108.513 47H103.889L107.949 23.5391L115.039 23.5552C117.134 23.6196 118.74 24.2642 119.857 25.4888C120.974 26.7134 121.447 28.3838 121.275 30.5C121.006 33.7119 119.545 35.9463 116.892 37.2031L119.245 46.7422V47H114.282L112.348 38.4277ZM110.672 34.48L113.105 34.5122C114.223 34.4907 115.104 34.0503 115.748 33.1909C116.393 32.3208 116.709 31.1714 116.699 29.7427C116.656 28.3354 116.038 27.5889 114.846 27.5029L111.897 27.4868L110.672 34.48ZM133.505 42.1982H127.269L125.223 47H120.195L131.378 23.5391H135.616L138.693 47H133.908L133.505 42.1982ZM128.961 38.2505H133.183L132.522 29.936L128.961 38.2505ZM149.505 38.4277H147.153L145.67 47H141.046L145.106 23.5391L152.196 23.5552C154.291 23.6196 155.897 24.2642 157.014 25.4888C158.131 26.7134 158.604 28.3838 158.432 30.5C158.164 33.7119 156.703 35.9463 154.049 37.2031L156.402 46.7422V47H151.439L149.505 38.4277ZM147.83 34.48L150.263 34.5122C151.38 34.4907 152.261 34.0503 152.905 33.1909C153.55 32.3208 153.867 31.1714 153.856 29.7427C153.813 28.3354 153.195 27.5889 152.003 27.5029L149.054 27.4868L147.83 34.48ZM178.203 42.1982H171.967L169.921 47H164.894L176.076 23.5391H180.314L183.392 47H178.606L178.203 42.1982ZM173.659 38.2505H177.881L177.22 29.936L173.659 38.2505ZM201.503 44.3413C200.633 45.3081 199.5 46.0547 198.103 46.5811C196.707 47.0967 195.208 47.3438 193.607 47.3223C192.2 47.3115 190.981 47.0054 189.95 46.4038C188.918 45.7915 188.118 44.9106 187.549 43.7612C186.99 42.6011 186.689 41.269 186.646 39.7651C186.614 38.9487 186.652 38.1162 186.759 37.2676L187.339 33.3843C187.833 30.1187 188.897 27.5942 190.53 25.811C192.163 24.0278 194.29 23.1631 196.911 23.2168C199.145 23.2598 200.826 23.9365 201.954 25.2471C203.093 26.5469 203.673 28.4751 203.694 31.0317L199.199 31.0156L199.15 29.7266C199.011 28.0508 198.189 27.186 196.685 27.1323C194.461 27.0464 193 28.5127 192.302 31.5312L192.061 32.7397L191.416 37.2676C191.276 38.2988 191.223 39.1797 191.255 39.9102C191.309 41.1133 191.577 41.9888 192.061 42.5366C192.555 43.0737 193.248 43.353 194.139 43.3745C194.977 43.396 195.912 43.1221 196.943 42.5527L197.765 38.2344H194.526L195.154 34.6572H202.985L201.503 44.3413ZM212.363 47.3223C210.301 47.2793 208.663 46.6025 207.449 45.292C206.246 43.9814 205.59 42.1606 205.483 39.8296C205.44 39.0239 205.472 38.2075 205.58 37.3804L206.176 33.481C206.487 31.397 207.094 29.5493 207.997 27.938C208.899 26.3267 210.021 25.1289 211.364 24.3447C212.707 23.5605 214.222 23.1846 215.908 23.2168C217.992 23.2598 219.625 23.9741 220.807 25.3599C221.999 26.7349 222.638 28.6201 222.724 31.0156C222.746 31.918 222.697 32.772 222.579 33.5776L222.047 37.1709C221.564 40.3936 220.474 42.9072 218.776 44.7119C217.09 46.5059 214.952 47.376 212.363 47.3223ZM217.955 33.4165C218.083 32.3101 218.148 31.4561 218.148 30.8545C218.094 28.459 217.229 27.229 215.554 27.1646C214.265 27.1108 213.223 27.5996 212.428 28.6309C211.644 29.6514 211.096 31.2573 210.784 33.4487L210.22 37.3965C210.091 38.46 210.043 39.2925 210.075 39.894C210.129 42.1499 211.015 43.3154 212.734 43.3906C213.958 43.4336 214.963 42.9824 215.747 42.0371C216.531 41.0918 217.079 39.5449 217.391 37.3965L217.955 33.4165ZM232.231 38.4277H229.878L228.396 47H223.771L227.832 23.5391L234.922 23.5552C237.017 23.6196 238.623 24.2642 239.74 25.4888C240.857 26.7134 241.33 28.3838 241.158 30.5C240.889 33.7119 239.428 35.9463 236.775 37.2031L239.127 46.7422V47H234.165L232.231 38.4277ZM230.555 34.48L232.988 34.5122C234.105 34.4907 234.986 34.0503 235.631 33.1909C236.275 32.3208 236.592 31.1714 236.582 29.7427C236.539 28.3354 235.921 27.5889 234.729 27.5029L231.78 27.4868L230.555 34.48ZM253.388 42.1982H247.152L245.105 47H240.078L251.261 23.5391H255.499L258.576 47H253.791L253.388 42.1982ZM248.844 38.2505H253.065L252.405 29.936L248.844 38.2505ZM266.488 39.7812H262.798L265.102 23.5391H269.823L266.488 39.7812ZM261.332 44.873C261.332 44.1318 261.562 43.5195 262.024 43.0361C262.497 42.5527 263.077 42.3003 263.765 42.2788C264.452 42.2788 265.027 42.5098 265.489 42.9717C265.951 43.4336 266.182 44.0083 266.182 44.6958C266.182 45.437 265.956 46.0493 265.505 46.5327C265.054 47.0161 264.474 47.2686 263.765 47.29C263.045 47.29 262.459 47.0537 262.008 46.5811C261.557 46.1084 261.332 45.5391 261.332 44.873Z" fill="#275A70"/>
</g>
<path d="M299.054 50.4172C298.58 49.3382 297.504 48.0086 295.018 49.1012L292.828 50.0641L290.741 45.3162C289.484 42.4566 286.363 42.2452 284.779 43.7571C283.632 44.8517 283.11 46.5967 283.865 48.3127L291.267 65.2574C289.464 63.8919 286.021 63.9073 284.479 65.4946L284.52 65.4337C282.882 67.1197 283.157 69.5094 285.641 71.5973L298.898 82.031L317.889 73.6821L317.993 72.0273C318.261 67.7217 317.496 63.4144 315.76 59.4652L314.322 56.1951C314.248 56.0256 314.166 55.86 314.078 55.6987C313.075 53.8658 310.831 53.1103 308.915 53.9433L307.488 54.5639L305.876 50.8951C305.17 49.2894 303.288 48.559 301.687 49.2765L299.054 50.4172Z" fill="white"/>
<path d="M316.634 59.081L315.196 55.811C315.111 55.6173 315.017 55.4253 314.916 55.2405C314.316 54.1442 313.332 53.3188 312.145 52.9164C310.962 52.5153 309.68 52.5688 308.533 53.0672L307.979 53.3081L307.272 51.6978C307.271 51.6976 307.271 51.6974 307.271 51.6972L306.75 50.5109C306.304 49.4972 305.489 48.7195 304.455 48.3211C303.426 47.9248 302.306 47.9536 301.301 48.402L299.463 49.1983C299.123 48.7146 298.71 48.3455 298.229 48.0963C297.223 47.5758 296.013 47.6196 294.633 48.2266L293.317 48.8047L291.615 44.9319C290.922 43.3553 289.636 42.2734 288.086 41.9637C286.629 41.6725 285.146 42.0846 284.118 43.0659C282.575 44.5382 282.132 46.7489 282.988 48.6958L289.437 63.4587C288.897 63.3495 288.328 63.2995 287.751 63.3135C286.251 63.3505 284.902 63.8275 283.999 64.6317C283.94 64.6702 283.884 64.7157 283.833 64.7683C282.925 65.7029 282.478 66.8334 282.539 68.0376C282.615 69.5425 283.475 71.0266 285.025 72.3296C285.033 72.3361 285.04 72.3426 285.049 72.349L298.305 82.7826C298.477 82.9177 298.686 82.9874 298.897 82.9874C299.027 82.9874 299.158 82.9608 299.281 82.9065L318.273 74.5577C318.6 74.4139 318.82 74.0992 318.842 73.7422L318.946 72.0873C319.223 67.6493 318.424 63.1518 316.634 59.081ZM308.889 60.1286C309.047 60.4867 309.397 60.7 309.765 60.7C309.893 60.7 310.024 60.674 310.149 60.6189C310.632 60.4065 310.852 59.8424 310.64 59.3591L308.749 55.0582L309.296 54.8204C310.774 54.1773 312.469 54.7522 313.238 56.1581C313.313 56.2949 313.383 56.4369 313.446 56.5802L314.884 59.8503C316.551 63.643 317.296 67.8333 317.038 71.9682L316.971 73.0418L299.037 80.9256L286.244 70.8564C285.134 69.9199 284.496 68.885 284.448 67.941C284.417 67.329 284.627 66.7591 285.072 66.2444C285.104 66.2189 285.135 66.1911 285.164 66.1609C286.309 64.9824 289.162 64.9009 290.653 65.9938L293.946 69.1564C294.131 69.3344 294.369 69.423 294.608 69.423C294.859 69.423 295.11 69.3246 295.297 69.1292C295.663 68.7485 295.651 68.1433 295.27 67.7775L292.066 64.7003L284.739 47.9283C284.097 46.4677 284.679 45.1732 285.438 44.4489C286.007 43.9058 286.878 43.6719 287.712 43.8385C288.655 44.0271 289.42 44.6886 289.865 45.7012L295.415 58.3263C295.573 58.6845 295.923 58.8978 296.291 58.8978C296.419 58.8978 296.55 58.8718 296.675 58.8167C297.158 58.6042 297.378 58.0402 297.165 57.5569L294.087 50.5548L295.403 49.9766C296.228 49.6138 296.884 49.5524 297.351 49.7941C297.681 49.9652 297.96 50.3044 298.179 50.8022L301.452 58.2478C301.609 58.606 301.96 58.8192 302.327 58.8192C302.456 58.8192 302.587 58.7932 302.712 58.7382C303.195 58.5257 303.415 57.9617 303.202 57.4783L300.316 50.9125L302.067 50.1538C302.071 50.1522 302.074 50.1507 302.078 50.1489C302.616 49.908 303.216 49.8923 303.768 50.105C304.323 50.3188 304.761 50.7361 305 51.28L308.889 60.1286Z" fill="black"/>
<path d="M312.724 73.9598C312.356 73.9598 312.006 73.7461 311.848 73.3875C311.636 72.904 311.856 72.3402 312.34 72.1282L313.283 71.7146C313.766 71.5024 314.33 71.7225 314.542 72.206C314.754 72.6895 314.534 73.2533 314.051 73.4654L313.108 73.879C312.983 73.9339 312.852 73.9598 312.724 73.9598Z" fill="black"/>
<path d="M299.791 79.6532C299.423 79.6532 299.072 79.4395 298.915 79.0809C298.703 78.5974 298.923 78.0336 299.406 77.8216L309.477 73.4045C309.961 73.1924 310.525 73.4125 310.737 73.8959C310.949 74.3794 310.729 74.9432 310.245 75.1552L300.174 79.5725C300.049 79.6273 299.919 79.6532 299.791 79.6532Z" fill="black"/>
<path d="M285.587 40.0833C285.143 40.0833 284.745 39.7724 284.651 39.3205L283.997 36.1493C283.89 35.6322 284.222 35.1265 284.739 35.0199C285.256 34.9134 285.762 35.2457 285.869 35.7627L286.524 38.9339C286.63 39.451 286.298 39.9567 285.781 40.0634C285.716 40.0768 285.651 40.0833 285.587 40.0833Z" fill="black"/>
<path d="M275.615 39.9373C275.444 39.9373 275.27 39.891 275.113 39.7939L274.453 39.385C274.004 39.107 273.865 38.5179 274.143 38.069C274.421 37.6201 275.011 37.4816 275.459 37.7597L276.12 38.1685C276.569 38.4465 276.707 39.0356 276.429 39.4845C276.248 39.7766 275.935 39.9373 275.615 39.9373Z" fill="black"/>
<path d="M280.85 43.4047C280.67 43.4047 280.487 43.3538 280.325 43.2474L278.286 41.9061C277.845 41.616 277.723 41.0232 278.013 40.5821C278.303 40.1411 278.896 40.0186 279.337 40.3087L281.376 41.65C281.817 41.9401 281.94 42.5329 281.649 42.974C281.466 43.2532 281.161 43.4047 280.85 43.4047Z" fill="black"/>
<path d="M276.672 49.7559C276.228 49.7559 275.83 49.445 275.737 48.9931C275.63 48.476 275.963 47.9703 276.48 47.8637L279.651 47.2089C280.168 47.1023 280.674 47.4347 280.78 47.9517C280.887 48.4688 280.555 48.9745 280.037 49.0812L276.866 49.736C276.801 49.7494 276.736 49.7559 276.672 49.7559Z" fill="black"/>
<path d="M280.885 57.3343C280.705 57.3343 280.522 57.2834 280.36 57.1769C279.919 56.8868 279.797 56.294 280.087 55.853L281.866 53.1476C282.156 52.7065 282.749 52.584 283.19 52.8742C283.631 53.1643 283.754 53.7571 283.464 54.1982L281.684 56.9035C281.501 57.1828 281.196 57.3343 280.885 57.3343Z" fill="black"/>
<path d="M294.6 45.817C294.156 45.817 293.758 45.5061 293.664 45.0543C293.558 44.5372 293.89 44.0316 294.407 43.9248L296.521 43.4882C297.039 43.3814 297.544 43.714 297.651 44.2311C297.758 44.7481 297.425 45.2538 296.908 45.3606L294.794 45.7972C294.729 45.8105 294.664 45.817 294.6 45.817Z" fill="black"/>
<path d="M300.545 44.5896C300.101 44.5896 299.703 44.2786 299.61 43.8269C299.503 43.3098 299.836 42.8041 300.353 42.6973L301.013 42.5609C301.531 42.4542 302.036 42.7868 302.143 43.3038C302.25 43.8208 301.917 44.3265 301.4 44.4333L300.739 44.5697C300.674 44.5831 300.609 44.5896 300.545 44.5896Z" fill="black"/>
<path d="M291.283 41.0823C291.103 41.0823 290.921 41.0315 290.759 40.925C290.318 40.6349 290.195 40.0421 290.485 39.601L292.265 36.8956C292.555 36.4546 293.148 36.332 293.589 36.6222C294.03 36.9124 294.152 37.5051 293.862 37.9462L292.083 40.6516C291.899 40.9308 291.594 41.0823 291.283 41.0823Z" fill="black"/>
<path d="M89.0361 95.3032C89.0361 89.8897 82.3128 85.4775 74.0189 85.4775C65.7251 85.4775 59.0018 89.8897 59.0018 95.3032C59.0018 95.443 59 95.8287 59 95.8782C59 101.621 64.8762 106.272 74.0172 106.272C83.213 106.272 89.0361 101.622 89.0361 95.8791C89.0361 95.6783 89.0361 95.5633 89.0361 95.3032Z" fill="#253E8B"/>
<path d="M88.374 95.3796C88.374 100.484 81.9455 104.621 74.0161 104.621C66.0867 104.621 59.6582 100.484 59.6582 95.3796C59.6582 90.2756 66.0867 86.1377 74.0161 86.1377C81.9455 86.1377 88.374 90.2756 88.374 95.3796Z" fill="#00AEEF"/>
<path d="M69.3215 92.4191C69.3136 92.4331 69.1711 92.5812 69.2635 92.6994C69.4904 92.9876 70.1906 93.1531 70.8988 92.9946C71.3201 92.9009 71.8603 92.4725 72.3837 92.0591C72.9511 91.6107 73.5141 91.1613 74.0797 90.9827C74.6788 90.7926 75.0623 90.874 75.3157 90.9503C75.5945 91.0326 75.9218 91.2156 76.4434 91.6054C77.426 92.3412 81.3784 95.7755 82.0611 96.3694C82.6109 96.1224 85.0555 95.0748 88.3763 94.3461C88.0878 92.582 87.011 90.9695 85.3775 89.6487C83.1 90.6008 80.3184 91.0974 77.5976 89.7748C77.5835 89.7687 76.1109 89.075 74.6585 89.1091C72.4998 89.1591 71.5647 90.0893 70.5751 91.0738L69.3215 92.4191Z" fill="white"/>
<path d="M81.7928 96.8835C81.746 96.843 77.131 92.8081 76.0853 92.0224C75.48 91.5692 75.1438 91.4537 74.7908 91.4078C74.6064 91.3849 74.3522 91.4184 74.1749 91.4669C73.6886 91.5992 73.0524 92.0242 72.4877 92.4712C71.9035 92.9368 71.352 93.375 70.8402 93.4897C70.1872 93.636 69.3895 93.4632 69.0251 93.2172C68.8777 93.1184 68.7736 93.0038 68.7233 92.8865C68.5892 92.5753 68.8371 92.3266 68.8777 92.2843L70.1519 90.9079C70.2993 90.7606 70.4493 90.6125 70.6011 90.467C70.1907 90.5208 69.8104 90.6257 69.4407 90.7289C68.9792 90.8585 68.5353 90.9819 68.0862 90.9811C67.8991 90.9811 66.8949 90.8162 66.7043 90.765C65.551 90.4494 64.5397 90.1434 63.029 89.438C61.2183 90.7844 60.0076 92.4686 59.6582 94.3229C59.9185 94.3917 60.3368 94.5169 60.5133 94.5557C64.6103 95.4666 65.8863 96.4039 66.1184 96.5996C66.369 96.321 66.7308 96.1446 67.134 96.1446C67.5876 96.1455 67.9962 96.373 68.2441 96.7248C68.4789 96.5397 68.8027 96.3809 69.221 96.3818C69.4107 96.3818 69.6075 96.4162 69.8069 96.4841C70.2693 96.6428 70.5075 96.9497 70.6311 97.2283C70.7864 97.1587 70.977 97.1066 71.202 97.1075C71.4217 97.1075 71.6511 97.1578 71.8832 97.2574C72.6386 97.5819 72.7559 98.3226 72.6871 98.8825C72.7409 98.8754 72.7956 98.8737 72.8503 98.8737C73.746 98.8737 74.474 99.6011 74.474 100.497C74.474 100.774 74.4034 101.035 74.2799 101.263C74.5234 101.4 75.1446 101.709 75.69 101.641C76.1259 101.586 76.2918 101.437 76.3509 101.353C76.3915 101.296 76.4338 101.228 76.3941 101.18L75.2382 99.8974C75.2382 99.8974 75.0476 99.7175 75.1111 99.6479C75.1764 99.5764 75.2938 99.6787 75.3767 99.7484C75.9653 100.239 76.6836 100.98 76.6836 100.98C76.6959 100.988 76.7427 101.082 77.0092 101.13C77.2377 101.171 77.6428 101.147 77.9225 100.917C77.9931 100.859 78.0637 100.786 78.1237 100.711C78.1184 100.715 78.1149 100.72 78.1104 100.722C78.4061 100.344 78.0769 99.9609 78.0769 99.9609L76.7277 98.4469C76.7277 98.4469 76.5344 98.2688 76.6006 98.1965C76.6589 98.1348 76.7833 98.2282 76.868 98.2988C77.2951 98.6559 77.8987 99.2608 78.4775 99.8277C78.5905 99.9097 79.0987 100.225 79.7729 99.7828C80.1815 99.5147 80.2635 99.1858 80.2521 98.9372C80.2229 98.6091 79.967 98.3746 79.967 98.3746L78.1237 96.5229C78.1237 96.5229 77.9287 96.3563 77.9975 96.2725C78.054 96.2019 78.1802 96.3034 78.2631 96.373C78.8499 96.8633 80.44 98.3199 80.44 98.3199C80.463 98.3367 81.0118 98.7273 81.6913 98.2952C81.934 98.1401 82.0884 97.9064 82.1016 97.6348C82.1246 97.1639 81.7928 96.8835 81.7928 96.8835Z" fill="white"/>
<path d="M72.932 99.1112C72.6484 99.1086 72.3377 99.2787 72.2974 99.2539C72.2747 99.2389 72.3149 99.1236 72.3412 99.0572C72.3683 98.9907 72.742 97.8537 71.8318 97.4584C71.1351 97.1553 70.7098 97.4956 70.5636 97.6498C70.5251 97.6906 70.5076 97.6871 70.5032 97.6357C70.4892 97.4309 70.3991 96.877 69.7978 96.6909C68.9383 96.4251 68.3861 97.0312 68.246 97.251C68.183 96.7547 67.769 96.3701 67.2614 96.3701C66.7109 96.3692 66.2637 96.8212 66.2637 97.3787C66.2637 97.937 66.71 98.389 67.2605 98.389C67.5284 98.3898 67.7717 98.2808 67.9502 98.1071C67.9563 98.1125 67.9581 98.1213 67.9555 98.1408C67.9135 98.3907 67.8364 99.2982 68.7747 99.6678C69.151 99.8158 69.4713 99.7059 69.7365 99.5171C69.8162 99.4613 69.8284 99.4852 69.8171 99.5597C69.7838 99.7928 69.8267 100.293 70.5181 100.577C71.045 100.794 71.3566 100.573 71.5605 100.381C71.6489 100.299 71.6734 100.312 71.6778 100.439C71.7032 101.115 72.2572 101.651 72.9302 101.651C73.6234 101.652 74.1853 101.085 74.1853 100.383C74.1862 99.6811 73.6251 99.1192 72.932 99.1112Z" fill="white"/>
<path d="M72.9027 101.439C72.2707 101.438 71.7566 100.946 71.7337 100.317C71.732 100.263 71.7267 100.119 71.6061 100.119C71.5559 100.119 71.5128 100.149 71.4635 100.195C71.3244 100.324 71.1475 100.456 70.8887 100.456C70.7717 100.456 70.6449 100.428 70.5111 100.372C69.8431 100.101 69.8343 99.64 69.8615 99.4551C69.8686 99.4065 69.8712 99.3543 69.8369 99.3145L69.7964 99.2773H69.7542C69.7207 99.2773 69.6855 99.2915 69.6389 99.3251C69.4452 99.4613 69.2604 99.5268 69.072 99.5268C68.969 99.5268 68.8625 99.5064 68.756 99.4657C67.8776 99.1216 67.9471 98.2884 67.9893 98.0381C67.9955 97.9867 67.9832 97.9469 67.9515 97.9213L67.889 97.87L67.8309 97.9257C67.6602 98.0911 67.4357 98.1822 67.2007 98.1822C66.6972 98.1814 66.2879 97.7709 66.2879 97.265C66.2888 96.759 66.699 96.3486 67.2016 96.3494C67.6566 96.3494 68.0439 96.6927 68.1011 97.1491L68.1328 97.3959L68.2675 97.1871C68.2825 97.1632 68.6513 96.6024 69.329 96.6033C69.4584 96.6033 69.5913 96.6245 69.7251 96.6652C70.2656 96.8315 70.3571 97.3242 70.3712 97.5286C70.3809 97.648 70.4654 97.6542 70.4821 97.6542C70.5287 97.6542 70.5631 97.6241 70.5877 97.5984C70.6898 97.4923 70.9116 97.3136 71.2593 97.3136C71.4177 97.3145 71.5876 97.3525 71.7619 97.4277C72.621 97.7983 72.2311 98.8943 72.2267 98.9058C72.1527 99.088 72.1501 99.1676 72.2196 99.2145L72.2531 99.2304H72.2777C72.3164 99.2304 72.3649 99.2136 72.4441 99.1862C72.5611 99.1464 72.7372 99.0854 72.9027 99.0854H72.9035C73.5496 99.0924 74.0751 99.6214 74.0751 100.264C74.0742 100.912 73.5487 101.439 72.9027 101.439ZM82.0005 96.154C80.5825 94.9112 77.3054 92.0479 76.4173 91.3783C75.9103 90.9944 75.5644 90.7927 75.2607 90.7016C75.1243 90.66 74.9359 90.6131 74.693 90.6131C74.4668 90.6131 74.2247 90.6538 73.9712 90.7352C73.3973 90.9174 72.8261 91.3738 72.2733 91.8152L72.2451 91.8382C71.7302 92.2487 71.1977 92.6741 70.7954 92.7652C70.6194 92.8051 70.439 92.8254 70.2585 92.8254C69.807 92.8245 69.4021 92.6936 69.2507 92.499C69.2252 92.4672 69.241 92.415 69.3 92.3398L69.3079 92.33L70.5551 90.9785C71.5322 89.9966 72.4546 89.0696 74.5794 89.0209C74.6147 89.0201 74.6507 89.0192 74.686 89.0192C76.008 89.0201 77.3292 89.6154 77.478 89.6835C78.7173 90.292 79.9971 90.5999 81.284 90.6016C82.6245 90.6016 84.0082 90.2682 85.4623 89.5959C85.2995 89.4579 85.1305 89.3243 84.9571 89.1934C83.679 89.7498 82.4617 90.0311 81.2875 90.0311C80.0878 90.0302 78.8889 89.7401 77.7253 89.1695C77.6646 89.1404 76.2052 88.4486 74.686 88.4478C74.6463 88.4478 74.6059 88.4486 74.5662 88.4495C72.7821 88.492 71.7769 89.128 71.1009 89.6861C70.4434 89.702 69.8765 89.8613 69.3713 90.0028C68.9215 90.1284 68.5324 90.2381 68.1531 90.2381C67.9973 90.2381 67.7156 90.223 67.691 90.2222C67.2544 90.2089 65.0565 89.6675 63.3093 89.0024C63.1306 89.1289 62.959 89.2598 62.7917 89.3942C64.6173 90.1461 66.8398 90.7281 67.5413 90.7741C67.7358 90.7865 67.9445 90.8086 68.1522 90.8086C68.6161 90.8086 69.079 90.6786 69.5271 90.5521C69.792 90.4778 70.0842 90.3964 70.3914 90.3372C70.3096 90.4185 70.2277 90.5008 70.145 90.5831L68.8775 91.9612C68.778 92.062 68.5615 92.3318 68.705 92.6644C68.7613 92.7989 68.8766 92.9271 69.0377 93.0359C69.3396 93.2403 69.8809 93.3791 70.3826 93.3791C70.5736 93.38 70.7541 93.3605 70.9196 93.3225C71.4512 93.2031 72.0084 92.7573 72.5981 92.2849C73.069 91.9099 73.7371 91.4331 74.2485 91.2925C74.392 91.2535 74.5671 91.2288 74.7088 91.2288C74.7511 91.2297 74.7907 91.2306 74.8277 91.2367C75.1657 91.2792 75.4931 91.3951 76.0758 91.8347C77.1162 92.6202 81.7206 96.6679 81.7654 96.7077C81.7681 96.7103 82.0621 96.9651 82.0418 97.3879C82.0304 97.6241 81.9001 97.8337 81.6739 97.9788C81.4776 98.1044 81.2743 98.1672 81.0701 98.1672C80.762 98.1672 80.5499 98.0221 80.5358 98.0124C80.5191 97.9982 78.9417 96.5449 78.3617 96.0567C78.2693 95.9797 78.1795 95.9098 78.0888 95.9098C78.0404 95.9098 77.9973 95.9311 77.9682 95.9673C77.8767 96.0805 77.9788 96.2371 78.0994 96.3406L79.9417 98.2017C79.9443 98.2035 80.1714 98.4175 80.1969 98.7032C80.211 99.0119 80.064 99.2693 79.7595 99.4701C79.542 99.6143 79.3211 99.6877 79.1055 99.6877C78.8229 99.6877 78.624 99.5586 78.58 99.5268L78.3159 99.2658C77.8336 98.7882 77.3345 98.2946 76.9692 97.9876C76.8803 97.9133 76.7852 97.8443 76.6946 97.8443C76.6497 97.8443 76.6092 97.862 76.5784 97.8939C76.537 97.9408 76.508 98.0239 76.6118 98.1628C76.6541 98.2203 76.7051 98.2672 76.7051 98.2672L78.0492 99.785C78.0607 99.7983 78.3265 100.116 78.0791 100.433L78.0325 100.494C77.992 100.538 77.948 100.579 77.9075 100.615C77.6778 100.803 77.3715 100.824 77.25 100.824C77.1849 100.824 77.1224 100.818 77.0678 100.808C76.9358 100.785 76.846 100.747 76.8028 100.696L76.787 100.678C76.7139 100.602 76.0353 99.9071 75.4755 99.4365C75.4016 99.3746 75.3091 99.2959 75.2141 99.2959C75.1665 99.2959 75.1243 99.3145 75.0926 99.3507C74.9808 99.4728 75.1481 99.655 75.2185 99.7222L76.3654 100.993C76.3636 101.004 76.3495 101.03 76.3214 101.07C76.2809 101.128 76.1418 101.268 75.7255 101.32C75.6753 101.327 75.6243 101.329 75.5732 101.329C75.1445 101.329 74.6868 101.12 74.4509 100.994C74.5583 100.767 74.6138 100.516 74.6138 100.264C74.6147 99.3153 73.848 98.544 72.9044 98.5431C72.8842 98.5431 72.8622 98.544 72.8419 98.544C72.8736 98.1115 72.812 97.2915 71.9749 96.9306C71.7337 96.8253 71.4934 96.7723 71.2593 96.7723C71.0762 96.7723 70.9002 96.8041 70.7356 96.8678C70.5613 96.5281 70.2735 96.2813 69.8976 96.1531C69.6899 96.0805 69.4831 96.0443 69.2833 96.0443C68.9347 96.0443 68.6143 96.1469 68.3273 96.3521C68.0527 96.0089 67.6381 95.8054 67.2024 95.8054C66.8204 95.8054 66.4525 95.9594 66.1805 96.23C65.824 95.9567 64.4078 95.0527 60.6176 94.1876C60.4337 94.1451 60.0129 94.0248 59.755 93.9488C59.7119 94.1549 59.6793 94.3627 59.6582 94.5733C59.6582 94.5733 60.3571 94.7413 60.4944 94.7732C64.3655 95.6365 65.6454 96.5352 65.8619 96.705C65.788 96.8819 65.7501 97.073 65.7501 97.265C65.7492 98.069 66.3997 98.7236 67.1998 98.7245C67.2896 98.7245 67.3785 98.7165 67.4665 98.7006C67.5871 99.2915 67.9717 99.7399 68.5606 99.9699C68.7331 100.036 68.9065 100.071 69.0773 100.071C69.1882 100.071 69.2991 100.057 69.4082 100.029C69.5165 100.306 69.7612 100.653 70.3078 100.876C70.4997 100.954 70.6916 100.994 70.8782 100.994C71.0305 100.994 71.1792 100.967 71.3209 100.915C71.5832 101.556 72.2064 101.98 72.9018 101.98C73.363 101.981 73.8057 101.793 74.1279 101.459C74.4043 101.613 74.987 101.892 75.5758 101.893C75.6524 101.893 75.7237 101.888 75.7959 101.88C76.3803 101.805 76.6523 101.575 76.7773 101.397C76.8002 101.365 76.8205 101.332 76.8381 101.298C76.9762 101.337 77.1285 101.37 77.3019 101.37C77.6214 101.37 77.9286 101.26 78.2376 101.034C78.5421 100.814 78.7587 100.497 78.7904 100.227C78.7912 100.224 78.7912 100.219 78.7921 100.216C78.8942 100.237 78.9998 100.248 79.1046 100.248C79.4338 100.248 79.7577 100.145 80.0667 99.9407C80.6625 99.548 80.7664 99.0349 80.7567 98.6988C80.8606 98.7209 80.968 98.7324 81.0736 98.7324C81.3826 98.7324 81.6853 98.6387 81.9741 98.4538C82.3437 98.2167 82.5664 97.8523 82.6008 97.4295C82.6236 97.142 82.5524 96.8519 82.4018 96.6024C83.4009 96.1699 85.6841 95.3331 88.374 94.7236C88.3582 94.514 88.3274 94.307 88.2904 94.1009C85.0363 94.8262 82.6078 95.8824 82.0005 96.154Z" fill="#253E8B"/>
<path d="M190.825 99.0102C190.251 99.768 189.434 100.149 188.363 100.149C187.295 100.149 186.474 99.768 185.897 99.0102C185.32 98.2505 185.033 97.1714 185.033 95.7712C185.033 94.3748 185.32 93.2957 185.897 92.5398C186.474 91.7859 187.295 91.4089 188.363 91.4089C189.434 91.4089 190.251 91.7859 190.825 92.5398C191.396 93.2957 191.682 94.3748 191.682 95.7712C191.682 97.1714 191.396 98.2505 190.825 99.0102ZM193.744 90.5376C192.567 89.0584 190.776 88.3218 188.374 88.3218C185.976 88.3218 184.185 89.0584 183.008 90.5376C181.827 92.0109 181.236 93.7574 181.236 95.7712C181.236 97.8215 181.827 99.5718 183.008 101.03C184.185 102.484 185.976 103.211 188.374 103.211C190.776 103.211 192.567 102.484 193.744 101.03C194.925 99.5718 195.514 97.8215 195.514 95.7712C195.514 93.7574 194.925 92.0109 193.744 90.5376Z" fill="#253E8B"/>
<path d="M161.752 97.285C161.729 98.5102 161.377 99.3546 160.703 99.8181C160.028 100.28 159.292 100.512 158.492 100.512C157.986 100.512 157.557 100.372 157.205 100.095C156.853 99.8162 156.678 99.3642 156.678 98.7371C156.678 98.0351 156.964 97.5177 157.541 97.1811C157.884 96.9868 158.445 96.8176 159.226 96.6829L160.061 96.5271C160.477 96.4502 160.805 96.3656 161.042 96.2752C161.284 96.1867 161.519 96.0694 161.752 95.9232V97.285ZM163.61 89.3009C162.415 88.695 161.046 88.3892 159.507 88.3892C157.137 88.3892 155.468 89.0066 154.495 90.2395C153.885 91.03 153.541 92.036 153.462 93.2612H156.997C157.086 92.7207 157.259 92.2918 157.52 91.9763C157.884 91.5474 158.505 91.332 159.38 91.332C160.165 91.332 160.757 91.4416 161.161 91.6609C161.565 91.8802 161.767 92.2764 161.767 92.8496C161.767 93.3208 161.506 93.667 160.979 93.8921C160.684 94.019 160.196 94.1267 159.513 94.2133L158.259 94.3652C156.835 94.546 155.753 94.848 155.022 95.2673C153.681 96.0405 153.012 97.285 153.012 99.0084C153.012 100.336 153.427 101.363 154.262 102.086C155.091 102.811 156.147 103.115 157.422 103.174C165.422 103.53 165.329 98.9583 165.404 98.0082V92.7457C165.404 91.0589 164.806 89.9106 163.61 89.3009Z" fill="#253E8B"/>
<path d="M145.375 91.5246C146.289 91.5246 146.96 91.8054 147.395 92.3709C147.691 92.7863 147.878 93.2576 147.949 93.7807H151.896C151.678 91.79 150.982 90.4013 149.807 89.6146C148.626 88.8298 147.116 88.4355 145.269 88.4355C143.096 88.4355 141.388 89.103 140.155 90.434C138.92 91.7688 138.303 93.6326 138.303 96.0273C138.303 98.1507 138.861 99.8799 139.98 101.213C141.097 102.546 142.842 103.211 145.212 103.211C147.583 103.211 149.376 102.413 150.582 100.815C151.34 99.8241 151.763 98.7739 151.853 97.6622H147.922C147.841 98.3969 147.612 98.9951 147.231 99.4567C146.852 99.9164 146.212 100.149 145.308 100.149C144.035 100.149 143.167 99.5683 142.707 98.4046C142.455 97.7834 142.327 96.9621 142.327 95.9388C142.327 94.8675 142.455 94.0058 142.707 93.3556C143.186 92.1362 144.077 91.5246 145.375 91.5246Z" fill="#253E8B"/>
<path d="M137.247 88.4355C129.144 88.4355 129.623 95.6099 129.623 95.6099V102.898H133.3V96.0619C133.3 94.9425 133.442 94.1135 133.721 93.573C134.227 92.6171 135.212 92.1381 136.683 92.1381C136.793 92.1381 136.939 92.1439 137.118 92.1516C137.299 92.1612 137.503 92.1766 137.736 92.2054V88.4625C137.572 88.4529 137.466 88.4471 137.422 88.4413C137.374 88.4375 137.316 88.4355 137.247 88.4355Z" fill="#253E8B"/>
<path d="M118.792 92.2439C119.307 91.7111 120.035 91.4457 120.971 91.4457C121.835 91.4457 122.556 91.6957 123.139 92.1996C123.72 92.6997 124.045 93.4364 124.112 94.4039H117.819C117.95 93.496 118.277 92.7767 118.792 92.2439ZM123.735 99.0893C123.579 99.3105 123.414 99.499 123.231 99.6452C122.712 100.072 122.006 100.203 121.175 100.203C120.39 100.203 119.775 100.084 119.217 99.7337C118.3 99.1701 117.784 98.2161 117.728 96.8139H127.903C127.919 95.6099 127.88 94.6866 127.782 94.0423C127.613 92.9479 127.242 91.9823 126.67 91.1552C126.036 90.2128 125.228 89.5242 124.256 89.0876C123.281 88.6529 122.187 88.4336 120.971 88.4336C118.923 88.4336 117.259 89.0799 115.976 90.3686C114.693 91.663 114.049 93.5172 114.049 95.9368C114.049 98.52 114.76 100.384 116.184 101.528C117.603 102.675 119.244 103.248 121.104 103.248C123.354 103.248 125.108 102.569 126.359 101.209C127.034 100.495 127.455 99.7875 127.634 99.0893H123.735Z" fill="#253E8B"/>
<path d="M112.574 102.896H109.214V94.4387C109.214 93.6655 108.96 91.8267 106.745 91.8267C105.267 91.8267 104.198 92.8923 104.198 94.4387V102.896H100.834V94.4387C100.834 93.6655 100.605 91.8267 98.3912 91.8267C96.887 91.8267 95.8446 92.8923 95.8446 94.4387V102.896H92.4824V94.5195C92.4824 91.0266 94.8001 88.3857 98.3912 88.3857C100.174 88.3857 101.624 89.134 102.567 90.3361C103.559 89.134 105.037 88.3857 106.745 88.3857C110.411 88.3857 112.574 90.9189 112.574 94.5195V102.896Z" fill="#253E8B"/>
<path d="M175.731 99.0392C175.194 99.8086 174.406 100.193 173.375 100.193C172.338 100.193 171.569 99.8067 171.061 99.0334C170.553 98.2602 170.299 97.1331 170.299 95.8425C170.299 94.6461 170.547 93.644 171.047 92.8381C171.546 92.0303 172.33 91.6264 173.4 91.6264C174.1 91.6264 174.715 91.8476 175.246 92.2919C176.108 93.0285 176.539 94.3461 176.539 96.0541C176.539 97.2754 176.27 98.2718 175.731 99.0392ZM180.143 84.0173C180.143 84.0173 176.439 83.623 176.439 86.5966L176.435 90.5377C176.025 89.878 175.492 89.3625 174.835 88.9932C174.179 88.622 173.427 88.4354 172.578 88.4354C170.74 88.4354 169.276 89.1182 168.176 90.4858C167.078 91.8533 166.531 93.8248 166.531 96.2079C166.531 98.2756 167.087 99.9702 168.203 101.29C169.318 102.609 171.505 103.188 173.446 103.188C180.218 103.188 180.139 97.3812 180.139 97.3812L180.143 84.0173Z" fill="#253E8B"/>
<path d="M208.695 96.0021C208.695 94.6115 208.426 93.544 207.882 92.7958C207.341 92.0495 206.566 91.6725 205.554 91.6725C204.581 91.6725 203.821 92.0495 203.279 92.7958C202.775 93.4729 202.523 94.5442 202.523 96.0021C202.523 97.3582 202.792 98.3699 203.335 99.0469C203.875 99.7951 204.652 100.17 205.662 100.17C206.601 100.17 207.341 99.7951 207.882 99.0469C208.426 98.2987 208.695 97.287 208.695 96.0021ZM202.523 105.967C202.523 106.467 202.342 106.894 201.979 107.25C201.621 107.606 201.186 107.785 200.681 107.785H198.84V94.9847C198.84 92.4958 199.68 90.9359 201.061 89.8818C201.973 89.1856 203.333 88.522 205.88 88.522C207.599 88.522 209.615 89.1894 210.702 90.5146C211.923 92.0072 212.431 93.669 212.431 95.8406C212.431 98.0871 211.89 99.899 210.809 101.292C209.724 102.648 208.334 103.321 206.637 103.321C205.735 103.321 204.941 103.161 204.256 102.842C203.531 102.484 202.956 101.932 202.523 101.184V105.967Z" fill="#00AEEF"/>
<path d="M230.774 96.0039C230.774 98.4582 231.484 99.82 232.903 100.087C234.319 100.351 235.367 100.022 236.041 99.0987C236.36 98.7102 236.589 98.0928 236.731 97.258C236.871 96.4213 236.883 95.5943 236.758 94.7768C236.635 93.9555 236.343 93.2265 235.881 92.5841C235.421 91.9455 234.746 91.6224 233.859 91.6224C232.653 91.6224 231.84 92.0706 231.413 92.9572C230.986 93.8497 230.774 94.8634 230.774 96.0039ZM236.839 102.142V101.236C236.2 102.234 235.339 102.853 234.258 103.105C233.177 103.351 232.103 103.263 231.044 102.836C229.976 102.409 229.062 101.618 228.301 100.461C227.539 99.3007 227.158 97.7812 227.158 95.8943C227.158 93.6901 227.664 91.8994 228.674 90.5299C229.684 89.1604 231.307 88.5353 233.54 88.4738C235.742 88.4161 237.021 88.9123 238.274 89.8625C239.643 90.903 240.455 92.4976 240.455 94.9865V102.519C240.459 104.913 238.789 109.354 233.54 108.977C230.29 108.743 228.485 107.41 227.477 104.386H231.361C231.644 104.884 232.076 105.267 232.665 105.531C233.248 105.8 233.834 105.871 234.417 105.746C235.002 105.621 235.535 105.273 236.016 104.705C236.493 104.136 236.766 103.28 236.839 102.142Z" fill="#00AEEF"/>
<path d="M222.146 97.4893C222.123 98.7164 221.771 99.5608 221.096 100.024C220.423 100.488 219.682 100.721 218.882 100.721C218.376 100.721 217.945 100.58 217.593 100.301C217.239 100.022 217.062 99.5685 217.062 98.9415C217.062 98.2413 217.353 97.7201 217.93 97.3854C218.274 97.1873 218.834 97.02 219.617 96.8853L220.453 96.7295C220.871 96.6507 221.2 96.566 221.436 96.4756C221.679 96.3891 221.913 96.2718 222.146 96.1237V97.4893ZM224.008 89.4898C222.81 88.8839 221.438 88.5762 219.898 88.5762C217.526 88.5762 215.855 89.1955 214.877 90.4303C214.268 91.2209 213.922 92.2287 213.843 93.4578H217.388C217.474 92.9154 217.647 92.4865 217.909 92.1691C218.274 91.7402 218.896 91.5267 219.773 91.5267C220.559 91.5267 221.152 91.6344 221.556 91.8556C221.96 92.0729 222.163 92.4711 222.163 93.0462C222.163 93.5194 221.9 93.8656 221.371 94.0887C221.079 94.2176 220.59 94.3233 219.903 94.4118L218.647 94.5638C217.222 94.7446 216.139 95.0465 215.406 95.4678C214.064 96.241 213.395 97.4893 213.395 99.2127C213.395 100.544 213.81 101.571 214.645 102.298C215.476 103.023 216.534 103.329 217.811 103.386C225.822 103.744 225.729 99.1646 225.804 98.2125V92.9423C225.804 91.2516 225.206 90.1014 224.008 89.4898Z" fill="#00AEEF"/>
<path d="M251.461 99.1374C250.888 99.8991 250.067 100.278 248.997 100.278C247.928 100.278 247.103 99.8991 246.526 99.1374C245.947 98.3796 245.66 97.2967 245.66 95.8945C245.66 94.4943 245.947 93.4152 246.526 92.6593C247.103 91.9034 247.928 91.5264 248.997 91.5264C250.067 91.5264 250.888 91.9034 251.461 92.6593C252.034 93.4152 252.321 94.4943 252.321 95.8945C252.321 97.2967 252.034 98.3796 251.461 99.1374ZM254.387 90.6513C253.206 89.1702 251.413 88.4316 249.007 88.4316C246.606 88.4316 244.812 89.1702 243.631 90.6513C242.448 92.1284 241.857 93.8768 241.857 95.8945C241.857 97.9487 242.448 99.7009 243.631 101.161C244.812 102.615 246.606 103.348 249.007 103.348C251.413 103.348 253.206 102.615 254.387 101.161C255.568 99.7009 256.158 97.9487 256.158 95.8945C256.158 93.8768 255.568 92.1284 254.387 90.6513Z" fill="#00AEEF"/>
<defs>
<filter id="filter0_d" x="0" y="0" width="315" height="78" filterUnits="userSpaceOnUse" color-interpolation-filters="sRGB">
<feFlood flood-opacity="0" result="BackgroundImageFix"/>
<feColorMatrix in="SourceAlpha" type="matrix" values="0 0 0 0 0 0 0 0 0 0 0 0 0 0 0 0 0 0 127 0"/>
<feOffset dy="4"/>
<feGaussianBlur stdDeviation="2"/>
<feColorMatrix type="matrix" values="0 0 0 0 0 0 0 0 0 0 0 0 0 0 0 0 0 0 0.25 0"/>
<feBlend mode="normal" in2="BackgroundImageFix" result="effect1_dropShadow"/>
<feBlend mode="normal" in="SourceGraphic" in2="effect1_dropShadow" result="shape"/>
</filter>
<filter id="filter1_i" x="24.3164" y="23.2144" width="245.507" height="28.1119" filterUnits="userSpaceOnUse" color-interpolation-filters="sRGB">
<feFlood flood-opacity="0" result="BackgroundImageFix"/>
<feBlend mode="normal" in="SourceGraphic" in2="BackgroundImageFix" result="shape"/>
<feColorMatrix in="SourceAlpha" type="matrix" values="0 0 0 0 0 0 0 0 0 0 0 0 0 0 0 0 0 0 127 0" result="hardAlpha"/>
<feOffset dy="4"/>
<feGaussianBlur stdDeviation="2"/>
<feComposite in2="hardAlpha" operator="arithmetic" k2="-1" k3="1"/>
<feColorMatrix type="matrix" values="0 0 0 0 0 0 0 0 0 0 0 0 0 0 0 0 0 0 0.25 0"/>
<feBlend mode="normal" in2="shape" result="effect1_innerShadow"/>
</filter>
<linearGradient id="paint0_linear" x1="157.5" y1="5" x2="157.5" y2="65" gradientUnits="userSpaceOnUse">
<stop stop-color="#FFF946"/>
<stop offset="1" stop-color="#FFC828"/>
</linearGradient>
</defs>
</svg>
