<svg width="464" height="138" viewBox="0 0 464 138" fill="none" xmlns="http://www.w3.org/2000/svg">
<path d="M39.9844 15.3203V22H37.8398V4.9375H43.2773C44.8633 4.9375 46.1094 5.41406 47.0156 6.36719C47.9219 7.3125 48.375 8.57422 48.375 10.1523C48.375 11.793 47.9414 13.0586 47.0742 13.9492C46.2148 14.832 45 15.2891 43.4297 15.3203H39.9844ZM39.9844 13.4805H43.2773C44.2305 13.4805 44.9609 13.1953 45.4688 12.625C45.9766 12.0547 46.2305 11.2383 46.2305 10.1758C46.2305 9.15234 45.9688 8.33203 45.4453 7.71484C44.9219 7.09766 44.2031 6.78906 43.2891 6.78906H39.9844V13.4805ZM56.0977 11.2656C55.8086 11.2109 55.4961 11.1836 55.1602 11.1836C54.0977 11.1836 53.3555 11.7656 52.9336 12.9297V22H50.8594V9.32031H52.875L52.9102 10.6094C53.4648 9.59375 54.25 9.08594 55.2656 9.08594C55.5938 9.08594 55.8672 9.14062 56.0859 9.25L56.0977 11.2656ZM62.4727 22.2344C60.8945 22.2344 59.6836 21.7656 58.8398 20.8281C57.9961 19.8828 57.5664 18.5 57.5508 16.6797V15.1445C57.5508 13.2539 57.9609 11.7734 58.7812 10.7031C59.6094 9.625 60.7617 9.08594 62.2383 9.08594C63.7227 9.08594 64.832 9.55859 65.5664 10.5039C66.3008 11.4492 66.6758 12.9219 66.6914 14.9219V16.2812H59.6133V16.5742C59.6133 17.9336 59.8672 18.9219 60.375 19.5391C60.8906 20.1562 61.6289 20.4648 62.5898 20.4648C63.1992 20.4648 63.7344 20.3516 64.1953 20.125C64.6641 19.8906 65.1016 19.5234 65.5078 19.0234L66.5859 20.3359C65.6875 21.6016 64.3164 22.2344 62.4727 22.2344ZM62.2383 10.8672C61.3789 10.8672 60.7422 11.1641 60.3281 11.7578C59.9141 12.3438 59.6797 13.2578 59.625 14.5H64.6172V14.2188C64.5625 13.0156 64.3438 12.1562 63.9609 11.6406C63.5859 11.125 63.0117 10.8672 62.2383 10.8672ZM73.5938 20.4648C74.2812 20.4648 74.832 20.2539 75.2461 19.832C75.6602 19.4023 75.8867 18.793 75.9258 18.0039H77.8828C77.8359 19.2227 77.4023 20.2344 76.582 21.0391C75.7695 21.8359 74.7734 22.2344 73.5938 22.2344C72.0234 22.2344 70.8242 21.7422 69.9961 20.7578C69.1758 19.7656 68.7656 18.293 68.7656 16.3398V14.9453C68.7656 13.0312 69.1758 11.5781 69.9961 10.5859C70.8164 9.58594 72.0117 9.08594 73.582 9.08594C74.8789 9.08594 75.9062 9.49609 76.6641 10.3164C77.4297 11.1367 77.8359 12.2578 77.8828 13.6797H75.9258C75.8789 12.7422 75.6523 12.0391 75.2461 11.5703C74.8477 11.1016 74.293 10.8672 73.582 10.8672C72.6602 10.8672 71.9766 11.1719 71.5312 11.7812C71.0859 12.3828 70.8555 13.375 70.8398 14.7578V16.375C70.8398 17.8672 71.0586 18.9219 71.4961 19.5391C71.9414 20.1562 72.6406 20.4648 73.5938 20.4648ZM73.875 22.1055L73.7578 22.7148C74.2266 22.8164 74.5859 23.043 74.8359 23.3945C75.0859 23.7461 75.2109 24.1953 75.2109 24.7422C75.2109 25.4922 74.9492 26.0898 74.4258 26.5352C73.9102 26.9805 73.168 27.2031 72.1992 27.2031L72.1289 25.9492C73.1289 25.9492 73.6289 25.5625 73.6289 24.7891C73.6289 24.4375 73.5234 24.1797 73.3125 24.0156C73.1094 23.8594 72.6992 23.7461 72.082 23.6758L72.4102 22.1055H73.875ZM79.8398 15.0742C79.8398 13.2305 80.2852 11.7734 81.1758 10.7031C82.0742 9.625 83.2578 9.08594 84.7266 9.08594C86.1953 9.08594 87.375 9.60938 88.2656 10.6562C89.1641 11.7031 89.625 13.1289 89.6484 14.9336V16.2695C89.6484 18.1055 89.2031 19.5586 88.3125 20.6289C87.4219 21.6992 86.2344 22.2344 84.75 22.2344C83.2812 22.2344 82.1016 21.7148 81.2109 20.6758C80.3281 19.6367 79.8711 18.2305 79.8398 16.457V15.0742ZM81.9141 16.2695C81.9141 17.5742 82.168 18.6016 82.6758 19.3516C83.1914 20.0938 83.8828 20.4648 84.75 20.4648C86.5781 20.4648 87.5195 19.1445 87.5742 16.5039V15.0742C87.5742 13.7773 87.3164 12.7539 86.8008 12.0039C86.2852 11.2461 85.5938 10.8672 84.7266 10.8672C83.875 10.8672 83.1914 11.2461 82.6758 12.0039C82.168 12.7539 81.9141 13.7734 81.9141 15.0625V16.2695ZM98.4844 18.7539C98.4844 18.3086 98.3164 17.9258 97.9805 17.6055C97.6445 17.2852 96.9961 16.9102 96.0352 16.4805C94.918 16.0195 94.1289 15.625 93.668 15.2969C93.2148 14.9688 92.875 14.5977 92.6484 14.1836C92.4219 13.7617 92.3086 13.2617 92.3086 12.6836C92.3086 11.6523 92.6836 10.7969 93.4336 10.1172C94.1914 9.42969 95.1562 9.08594 96.3281 9.08594C97.5625 9.08594 98.5547 9.44531 99.3047 10.1641C100.055 10.8828 100.43 11.8047 100.43 12.9297H98.3672C98.3672 12.3594 98.1758 11.875 97.793 11.4766C97.4102 11.0703 96.9219 10.8672 96.3281 10.8672C95.7188 10.8672 95.2383 11.0273 94.8867 11.3477C94.543 11.6602 94.3711 12.082 94.3711 12.6133C94.3711 13.0352 94.4961 13.375 94.7461 13.6328C95.0039 13.8906 95.6172 14.2305 96.5859 14.6523C98.125 15.2539 99.1719 15.8438 99.7266 16.4219C100.281 16.9922 100.559 17.7188 100.559 18.6016C100.559 19.7031 100.18 20.5859 99.4219 21.25C98.6641 21.9062 97.6484 22.2344 96.375 22.2344C95.0547 22.2344 93.9844 21.8555 93.1641 21.0977C92.3438 20.3398 91.9336 19.3789 91.9336 18.2148H94.0195C94.043 18.918 94.2578 19.4688 94.6641 19.8672C95.0703 20.2656 95.6406 20.4648 96.375 20.4648C97.0625 20.4648 97.5859 20.3125 97.9453 20.0078C98.3047 19.6953 98.4844 19.2773 98.4844 18.7539ZM117.938 16.2695C117.938 18.2773 117.574 19.7734 116.848 20.7578C116.129 21.7422 115.109 22.2344 113.789 22.2344C112.516 22.2344 111.535 21.7539 110.848 20.793V26.875H108.785V9.32031H110.66L110.766 10.7266C111.461 9.63281 112.457 9.08594 113.754 9.08594C115.145 9.08594 116.184 9.57031 116.871 10.5391C117.559 11.5078 117.914 12.957 117.938 14.8867V16.2695ZM115.875 15.0859C115.875 13.6641 115.656 12.6172 115.219 11.9453C114.781 11.2656 114.078 10.9258 113.109 10.9258C112.117 10.9258 111.363 11.4219 110.848 12.4141V19.0117C111.355 19.9805 112.117 20.4648 113.133 20.4648C114.07 20.4648 114.758 20.1289 115.195 19.457C115.641 18.7773 115.867 17.7422 115.875 16.3516V15.0859ZM125.848 11.2656C125.559 11.2109 125.246 11.1836 124.91 11.1836C123.848 11.1836 123.105 11.7656 122.684 12.9297V22H120.609V9.32031H122.625L122.66 10.6094C123.215 9.59375 124 9.08594 125.016 9.08594C125.344 9.08594 125.617 9.14062 125.836 9.25L125.848 11.2656ZM127.254 15.0742C127.254 13.2305 127.699 11.7734 128.59 10.7031C129.488 9.625 130.672 9.08594 132.141 9.08594C133.609 9.08594 134.789 9.60938 135.68 10.6562C136.578 11.7031 137.039 13.1289 137.062 14.9336V16.2695C137.062 18.1055 136.617 19.5586 135.727 20.6289C134.836 21.6992 133.648 22.2344 132.164 22.2344C130.695 22.2344 129.516 21.7148 128.625 20.6758C127.742 19.6367 127.285 18.2305 127.254 16.457V15.0742ZM129.328 16.2695C129.328 17.5742 129.582 18.6016 130.09 19.3516C130.605 20.0938 131.297 20.4648 132.164 20.4648C133.992 20.4648 134.934 19.1445 134.988 16.5039V15.0742C134.988 13.7773 134.73 12.7539 134.215 12.0039C133.699 11.2461 133.008 10.8672 132.141 10.8672C131.289 10.8672 130.605 11.2461 130.09 12.0039C129.582 12.7539 129.328 13.7734 129.328 15.0625V16.2695ZM141.691 9.32031L141.738 10.4922C142.512 9.55469 143.531 9.08594 144.797 9.08594C146.211 9.08594 147.199 9.69922 147.762 10.9258C148.559 9.69922 149.668 9.08594 151.09 9.08594C153.426 9.08594 154.621 10.543 154.676 13.457V22H152.613V13.6562C152.613 12.7344 152.449 12.0508 152.121 11.6055C151.793 11.1523 151.238 10.9258 150.457 10.9258C149.832 10.9258 149.324 11.168 148.934 11.6523C148.543 12.1367 148.316 12.7539 148.254 13.5039V22H146.168V13.5625C146.145 11.8047 145.43 10.9258 144.023 10.9258C142.977 10.9258 142.238 11.4492 141.809 12.4961V22H139.746V9.32031H141.691ZM157.371 15.0742C157.371 13.2305 157.816 11.7734 158.707 10.7031C159.605 9.625 160.789 9.08594 162.258 9.08594C163.727 9.08594 164.906 9.60938 165.797 10.6562C166.695 11.7031 167.156 13.1289 167.18 14.9336V16.2695C167.18 18.1055 166.734 19.5586 165.844 20.6289C164.953 21.6992 163.766 22.2344 162.281 22.2344C160.812 22.2344 159.633 21.7148 158.742 20.6758C157.859 19.6367 157.402 18.2305 157.371 16.457V15.0742ZM159.445 16.2695C159.445 17.5742 159.699 18.6016 160.207 19.3516C160.723 20.0938 161.414 20.4648 162.281 20.4648C164.109 20.4648 165.051 19.1445 165.105 16.5039V15.0742C165.105 13.7773 164.848 12.7539 164.332 12.0039C163.816 11.2461 163.125 10.8672 162.258 10.8672C161.406 10.8672 160.723 11.2461 160.207 12.0039C159.699 12.7539 159.445 13.7734 159.445 15.0625V16.2695ZM174.258 20.4648C174.945 20.4648 175.496 20.2539 175.91 19.832C176.324 19.4023 176.551 18.793 176.59 18.0039H178.547C178.5 19.2227 178.066 20.2344 177.246 21.0391C176.434 21.8359 175.438 22.2344 174.258 22.2344C172.688 22.2344 171.488 21.7422 170.66 20.7578C169.84 19.7656 169.43 18.293 169.43 16.3398V14.9453C169.43 13.0312 169.84 11.5781 170.66 10.5859C171.48 9.58594 172.676 9.08594 174.246 9.08594C175.543 9.08594 176.57 9.49609 177.328 10.3164C178.094 11.1367 178.5 12.2578 178.547 13.6797H176.59C176.543 12.7422 176.316 12.0391 175.91 11.5703C175.512 11.1016 174.957 10.8672 174.246 10.8672C173.324 10.8672 172.641 11.1719 172.195 11.7812C171.75 12.3828 171.52 13.375 171.504 14.7578V16.375C171.504 17.8672 171.723 18.9219 172.16 19.5391C172.605 20.1562 173.305 20.4648 174.258 20.4648ZM183.176 22H181.102V9.32031H183.176V22ZM183.34 5.95703C183.34 6.30859 183.242 6.60156 183.047 6.83594C182.852 7.07031 182.555 7.1875 182.156 7.1875C181.766 7.1875 181.473 7.07031 181.277 6.83594C181.082 6.60156 180.984 6.30859 180.984 5.95703C180.984 5.60547 181.082 5.30859 181.277 5.06641C181.473 4.82422 181.766 4.70312 182.156 4.70312C182.547 4.70312 182.84 4.82813 183.035 5.07812C183.238 5.32031 183.34 5.61328 183.34 5.95703ZM186.012 15.0742C186.012 13.2305 186.457 11.7734 187.348 10.7031C188.246 9.625 189.43 9.08594 190.898 9.08594C192.367 9.08594 193.547 9.60938 194.438 10.6562C195.336 11.7031 195.797 13.1289 195.82 14.9336V16.2695C195.82 18.1055 195.375 19.5586 194.484 20.6289C193.594 21.6992 192.406 22.2344 190.922 22.2344C189.453 22.2344 188.273 21.7148 187.383 20.6758C186.5 19.6367 186.043 18.2305 186.012 16.457V15.0742ZM188.086 16.2695C188.086 17.5742 188.34 18.6016 188.848 19.3516C189.363 20.0938 190.055 20.4648 190.922 20.4648C192.75 20.4648 193.691 19.1445 193.746 16.5039V15.0742C193.746 13.7773 193.488 12.7539 192.973 12.0039C192.457 11.2461 191.766 10.8672 190.898 10.8672C190.047 10.8672 189.363 11.2461 188.848 12.0039C188.34 12.7539 188.086 13.7734 188.086 15.0625V16.2695ZM200.449 9.32031L200.508 10.6914C201.312 9.62109 202.34 9.08594 203.59 9.08594C205.832 9.08594 206.969 10.582 207 13.5742V22H204.938V13.668C204.938 12.6758 204.77 11.9727 204.434 11.5586C204.105 11.1367 203.609 10.9258 202.945 10.9258C202.43 10.9258 201.965 11.0977 201.551 11.4414C201.145 11.7852 200.816 12.2344 200.566 12.7891V22H198.492V9.32031H200.449ZM216.645 22C216.52 21.7266 216.43 21.2656 216.375 20.6172C215.641 21.6953 214.703 22.2344 213.562 22.2344C212.414 22.2344 211.516 21.9141 210.867 21.2734C210.227 20.625 209.906 19.7148 209.906 18.543C209.906 17.2539 210.344 16.2305 211.219 15.4727C212.094 14.7148 213.293 14.3281 214.816 14.3125H216.34V12.9648C216.34 12.207 216.172 11.668 215.836 11.3477C215.5 11.0273 214.988 10.8672 214.301 10.8672C213.676 10.8672 213.168 11.0547 212.777 11.4297C212.387 11.7969 212.191 12.2656 212.191 12.8359H210.117C210.117 12.1875 210.309 11.5703 210.691 10.9844C211.074 10.3906 211.59 9.92578 212.238 9.58984C212.887 9.25391 213.609 9.08594 214.406 9.08594C215.703 9.08594 216.688 9.41016 217.359 10.0586C218.039 10.6992 218.387 11.6367 218.402 12.8711V19.2695C218.41 20.2461 218.543 21.0938 218.801 21.8125V22H216.645ZM213.879 20.3477C214.387 20.3477 214.871 20.207 215.332 19.9258C215.793 19.6445 216.129 19.293 216.34 18.8711V15.8477H215.168C214.184 15.8633 213.406 16.0859 212.836 16.5156C212.266 16.9375 211.98 17.5312 211.98 18.2969C211.98 19.0156 212.125 19.5391 212.414 19.8672C212.703 20.1875 213.191 20.3477 213.879 20.3477ZM223.863 22H221.789V9.32031H223.863V22ZM224.027 5.95703C224.027 6.30859 223.93 6.60156 223.734 6.83594C223.539 7.07031 223.242 7.1875 222.844 7.1875C222.453 7.1875 222.16 7.07031 221.965 6.83594C221.77 6.60156 221.672 6.30859 221.672 5.95703C221.672 5.60547 221.77 5.30859 221.965 5.06641C222.16 4.82422 222.453 4.70312 222.844 4.70312C223.234 4.70312 223.527 4.82813 223.723 5.07812C223.926 5.32031 224.027 5.61328 224.027 5.95703ZM233.297 18.7539C233.297 18.3086 233.129 17.9258 232.793 17.6055C232.457 17.2852 231.809 16.9102 230.848 16.4805C229.73 16.0195 228.941 15.625 228.48 15.2969C228.027 14.9688 227.688 14.5977 227.461 14.1836C227.234 13.7617 227.121 13.2617 227.121 12.6836C227.121 11.6523 227.496 10.7969 228.246 10.1172C229.004 9.42969 229.969 9.08594 231.141 9.08594C232.375 9.08594 233.367 9.44531 234.117 10.1641C234.867 10.8828 235.242 11.8047 235.242 12.9297H233.18C233.18 12.3594 232.988 11.875 232.605 11.4766C232.223 11.0703 231.734 10.8672 231.141 10.8672C230.531 10.8672 230.051 11.0273 229.699 11.3477C229.355 11.6602 229.184 12.082 229.184 12.6133C229.184 13.0352 229.309 13.375 229.559 13.6328C229.816 13.8906 230.43 14.2305 231.398 14.6523C232.938 15.2539 233.984 15.8438 234.539 16.4219C235.094 16.9922 235.371 17.7188 235.371 18.6016C235.371 19.7031 234.992 20.5859 234.234 21.25C233.477 21.9062 232.461 22.2344 231.188 22.2344C229.867 22.2344 228.797 21.8555 227.977 21.0977C227.156 20.3398 226.746 19.3789 226.746 18.2148H228.832C228.855 18.918 229.07 19.4688 229.477 19.8672C229.883 20.2656 230.453 20.4648 231.188 20.4648C231.875 20.4648 232.398 20.3125 232.758 20.0078C233.117 19.6953 233.297 19.2773 233.297 18.7539ZM252.75 16.2695C252.75 18.2773 252.387 19.7734 251.66 20.7578C250.941 21.7422 249.922 22.2344 248.602 22.2344C247.328 22.2344 246.348 21.7539 245.66 20.793V26.875H243.598V9.32031H245.473L245.578 10.7266C246.273 9.63281 247.27 9.08594 248.566 9.08594C249.957 9.08594 250.996 9.57031 251.684 10.5391C252.371 11.5078 252.727 12.957 252.75 14.8867V16.2695ZM250.688 15.0859C250.688 13.6641 250.469 12.6172 250.031 11.9453C249.594 11.2656 248.891 10.9258 247.922 10.9258C246.93 10.9258 246.176 11.4219 245.66 12.4141V19.0117C246.168 19.9805 246.93 20.4648 247.945 20.4648C248.883 20.4648 249.57 20.1289 250.008 19.457C250.453 18.7773 250.68 17.7422 250.688 16.3516V15.0859ZM254.988 15.0742C254.988 13.2305 255.434 11.7734 256.324 10.7031C257.223 9.625 258.406 9.08594 259.875 9.08594C261.344 9.08594 262.523 9.60938 263.414 10.6562C264.312 11.7031 264.773 13.1289 264.797 14.9336V16.2695C264.797 18.1055 264.352 19.5586 263.461 20.6289C262.57 21.6992 261.383 22.2344 259.898 22.2344C258.43 22.2344 257.25 21.7148 256.359 20.6758C255.477 19.6367 255.02 18.2305 254.988 16.457V15.0742ZM257.062 16.2695C257.062 17.5742 257.316 18.6016 257.824 19.3516C258.34 20.0938 259.031 20.4648 259.898 20.4648C261.727 20.4648 262.668 19.1445 262.723 16.5039V15.0742C262.723 13.7773 262.465 12.7539 261.949 12.0039C261.434 11.2461 260.742 10.8672 259.875 10.8672C259.023 10.8672 258.34 11.2461 257.824 12.0039C257.316 12.7539 257.062 13.7734 257.062 15.0625V16.2695ZM272.707 11.2656C272.418 11.2109 272.105 11.1836 271.77 11.1836C270.707 11.1836 269.965 11.7656 269.543 12.9297V22H267.469V9.32031H269.484L269.52 10.6094C270.074 9.59375 270.859 9.08594 271.875 9.08594C272.203 9.08594 272.477 9.14062 272.695 9.25L272.707 11.2656ZM283.008 6.25V9.32031H284.918V10.9961H283.008V18.8594C283.008 19.3594 283.09 19.7383 283.254 19.9961C283.418 20.2539 283.699 20.3828 284.098 20.3828C284.371 20.3828 284.648 20.3359 284.93 20.2422L284.906 22C284.438 22.1562 283.957 22.2344 283.465 22.2344C282.645 22.2344 282.02 21.9414 281.59 21.3555C281.16 20.7695 280.945 19.9414 280.945 18.8711V10.9961H279.012V9.32031H280.945V6.25H283.008ZM291.926 22.2344C290.348 22.2344 289.137 21.7656 288.293 20.8281C287.449 19.8828 287.02 18.5 287.004 16.6797V15.1445C287.004 13.2539 287.414 11.7734 288.234 10.7031C289.062 9.625 290.215 9.08594 291.691 9.08594C293.176 9.08594 294.285 9.55859 295.02 10.5039C295.754 11.4492 296.129 12.9219 296.145 14.9219V16.2812H289.066V16.5742C289.066 17.9336 289.32 18.9219 289.828 19.5391C290.344 20.1562 291.082 20.4648 292.043 20.4648C292.652 20.4648 293.188 20.3516 293.648 20.125C294.117 19.8906 294.555 19.5234 294.961 19.0234L296.039 20.3359C295.141 21.6016 293.77 22.2344 291.926 22.2344ZM291.691 10.8672C290.832 10.8672 290.195 11.1641 289.781 11.7578C289.367 12.3438 289.133 13.2578 289.078 14.5H294.07V14.2188C294.016 13.0156 293.797 12.1562 293.414 11.6406C293.039 11.125 292.465 10.8672 291.691 10.8672ZM300.598 9.32031L300.645 10.4922C301.418 9.55469 302.438 9.08594 303.703 9.08594C305.117 9.08594 306.105 9.69922 306.668 10.9258C307.465 9.69922 308.574 9.08594 309.996 9.08594C312.332 9.08594 313.527 10.543 313.582 13.457V22H311.52V13.6562C311.52 12.7344 311.355 12.0508 311.027 11.6055C310.699 11.1523 310.145 10.9258 309.363 10.9258C308.738 10.9258 308.23 11.168 307.84 11.6523C307.449 12.1367 307.223 12.7539 307.16 13.5039V22H305.074V13.5625C305.051 11.8047 304.336 10.9258 302.93 10.9258C301.883 10.9258 301.145 11.4492 300.715 12.4961V22H298.652V9.32031H300.598ZM325.875 16.2695C325.875 18.2773 325.512 19.7734 324.785 20.7578C324.066 21.7422 323.047 22.2344 321.727 22.2344C320.453 22.2344 319.473 21.7539 318.785 20.793V26.875H316.723V9.32031H318.598L318.703 10.7266C319.398 9.63281 320.395 9.08594 321.691 9.08594C323.082 9.08594 324.121 9.57031 324.809 10.5391C325.496 11.5078 325.852 12.957 325.875 14.8867V16.2695ZM323.812 15.0859C323.812 13.6641 323.594 12.6172 323.156 11.9453C322.719 11.2656 322.016 10.9258 321.047 10.9258C320.055 10.9258 319.301 11.4219 318.785 12.4141V19.0117C319.293 19.9805 320.055 20.4648 321.07 20.4648C322.008 20.4648 322.695 20.1289 323.133 19.457C323.578 18.7773 323.805 17.7422 323.812 16.3516V15.0859ZM328.113 15.0742C328.113 13.2305 328.559 11.7734 329.449 10.7031C330.348 9.625 331.531 9.08594 333 9.08594C334.469 9.08594 335.648 9.60938 336.539 10.6562C337.438 11.7031 337.898 13.1289 337.922 14.9336V16.2695C337.922 18.1055 337.477 19.5586 336.586 20.6289C335.695 21.6992 334.508 22.2344 333.023 22.2344C331.555 22.2344 330.375 21.7148 329.484 20.6758C328.602 19.6367 328.145 18.2305 328.113 16.457V15.0742ZM330.188 16.2695C330.188 17.5742 330.441 18.6016 330.949 19.3516C331.465 20.0938 332.156 20.4648 333.023 20.4648C334.852 20.4648 335.793 19.1445 335.848 16.5039V15.0742C335.848 13.7773 335.59 12.7539 335.074 12.0039C334.559 11.2461 333.867 10.8672 333 10.8672C332.148 10.8672 331.465 11.2461 330.949 12.0039C330.441 12.7539 330.188 13.7734 330.188 15.0625V16.2695ZM348.34 22H346.266V4H348.34V22ZM353.848 22H351.773V9.32031H353.848V22ZM354.012 5.95703C354.012 6.30859 353.914 6.60156 353.719 6.83594C353.523 7.07031 353.227 7.1875 352.828 7.1875C352.438 7.1875 352.145 7.07031 351.949 6.83594C351.754 6.60156 351.656 6.30859 351.656 5.95703C351.656 5.60547 351.754 5.30859 351.949 5.06641C352.145 4.82422 352.438 4.70312 352.828 4.70312C353.219 4.70312 353.512 4.82813 353.707 5.07812C353.91 5.32031 354.012 5.61328 354.012 5.95703ZM359.074 9.32031L359.121 10.4922C359.895 9.55469 360.914 9.08594 362.18 9.08594C363.594 9.08594 364.582 9.69922 365.145 10.9258C365.941 9.69922 367.051 9.08594 368.473 9.08594C370.809 9.08594 372.004 10.543 372.059 13.457V22H369.996V13.6562C369.996 12.7344 369.832 12.0508 369.504 11.6055C369.176 11.1523 368.621 10.9258 367.84 10.9258C367.215 10.9258 366.707 11.168 366.316 11.6523C365.926 12.1367 365.699 12.7539 365.637 13.5039V22H363.551V13.5625C363.527 11.8047 362.812 10.9258 361.406 10.9258C360.359 10.9258 359.621 11.4492 359.191 12.4961V22H357.129V9.32031H359.074ZM377.426 22H375.352V9.32031H377.426V22ZM377.59 5.95703C377.59 6.30859 377.492 6.60156 377.297 6.83594C377.102 7.07031 376.805 7.1875 376.406 7.1875C376.016 7.1875 375.723 7.07031 375.527 6.83594C375.332 6.60156 375.234 6.30859 375.234 5.95703C375.234 5.60547 375.332 5.30859 375.527 5.06641C375.723 4.82422 376.016 4.70312 376.406 4.70312C376.797 4.70312 377.09 4.82813 377.285 5.07812C377.488 5.32031 377.59 5.61328 377.59 5.95703ZM383.414 6.25V9.32031H385.324V10.9961H383.414V18.8594C383.414 19.3594 383.496 19.7383 383.66 19.9961C383.824 20.2539 384.105 20.3828 384.504 20.3828C384.777 20.3828 385.055 20.3359 385.336 20.2422L385.312 22C384.844 22.1562 384.363 22.2344 383.871 22.2344C383.051 22.2344 382.426 21.9414 381.996 21.3555C381.566 20.7695 381.352 19.9414 381.352 18.8711V10.9961H379.418V9.32031H381.352V6.25H383.414ZM394.324 22C394.199 21.7266 394.109 21.2656 394.055 20.6172C393.32 21.6953 392.383 22.2344 391.242 22.2344C390.094 22.2344 389.195 21.9141 388.547 21.2734C387.906 20.625 387.586 19.7148 387.586 18.543C387.586 17.2539 388.023 16.2305 388.898 15.4727C389.773 14.7148 390.973 14.3281 392.496 14.3125H394.02V12.9648C394.02 12.207 393.852 11.668 393.516 11.3477C393.18 11.0273 392.668 10.8672 391.98 10.8672C391.355 10.8672 390.848 11.0547 390.457 11.4297C390.066 11.7969 389.871 12.2656 389.871 12.8359H387.797C387.797 12.1875 387.988 11.5703 388.371 10.9844C388.754 10.3906 389.27 9.92578 389.918 9.58984C390.566 9.25391 391.289 9.08594 392.086 9.08594C393.383 9.08594 394.367 9.41016 395.039 10.0586C395.719 10.6992 396.066 11.6367 396.082 12.8711V19.2695C396.09 20.2461 396.223 21.0938 396.48 21.8125V22H394.324ZM391.559 20.3477C392.066 20.3477 392.551 20.207 393.012 19.9258C393.473 19.6445 393.809 19.293 394.02 18.8711V15.8477H392.848C391.863 15.8633 391.086 16.0859 390.516 16.5156C389.945 16.9375 389.66 17.5312 389.66 18.2969C389.66 19.0156 389.805 19.5391 390.094 19.8672C390.383 20.1875 390.871 20.3477 391.559 20.3477ZM398.871 15.0859C398.871 13.1328 399.234 11.6445 399.961 10.6211C400.695 9.59766 401.746 9.08594 403.113 9.08594C404.324 9.08594 405.27 9.57812 405.949 10.5625V4H408.023V22H406.125L406.02 20.6406C405.34 21.7031 404.367 22.2344 403.102 22.2344C401.789 22.2344 400.758 21.7266 400.008 20.7109C399.266 19.6875 398.887 18.2461 398.871 16.3867V15.0859ZM400.945 16.2695C400.945 17.6914 401.156 18.7383 401.578 19.4102C402 20.0742 402.688 20.4062 403.641 20.4062C404.672 20.4062 405.441 19.8867 405.949 18.8477V12.4492C405.418 11.4336 404.652 10.9258 403.652 10.9258C402.699 10.9258 402.012 11.2617 401.59 11.9336C401.168 12.5977 400.953 13.6211 400.945 15.0039V16.2695ZM410.777 15.0742C410.777 13.2305 411.223 11.7734 412.113 10.7031C413.012 9.625 414.195 9.08594 415.664 9.08594C417.133 9.08594 418.312 9.60938 419.203 10.6562C420.102 11.7031 420.562 13.1289 420.586 14.9336V16.2695C420.586 18.1055 420.141 19.5586 419.25 20.6289C418.359 21.6992 417.172 22.2344 415.688 22.2344C414.219 22.2344 413.039 21.7148 412.148 20.6758C411.266 19.6367 410.809 18.2305 410.777 16.457V15.0742ZM412.852 16.2695C412.852 17.5742 413.105 18.6016 413.613 19.3516C414.129 20.0938 414.82 20.4648 415.688 20.4648C417.516 20.4648 418.457 19.1445 418.512 16.5039V15.0742C418.512 13.7773 418.254 12.7539 417.738 12.0039C417.223 11.2461 416.531 10.8672 415.664 10.8672C414.812 10.8672 414.129 11.2461 413.613 12.0039C413.105 12.7539 412.852 13.7734 412.852 15.0625V16.2695Z" fill="#BC0406"/>
<path d="M4.75 79C4.11667 79 3.65 78.85 3.35 78.55C3.05 78.2167 2.9 77.7 2.9 77V46C2.9 45.3 3.05 44.8 3.35 44.5C3.65 44.1667 4.11667 44 4.75 44H19.5C20 44 20.3667 44.2 20.6 44.6C20.8333 45 20.95 45.6333 20.95 46.5V48.05C20.95 48.9167 20.8333 49.55 20.6 49.95C20.3667 50.35 20 50.55 19.5 50.55H10.7V57.8H18.5C19 57.8 19.3667 58 19.6 58.4C19.8333 58.8 19.95 59.4333 19.95 60.3V61.85C19.95 62.7167 19.8333 63.35 19.6 63.75C19.3667 64.15 19 64.35 18.5 64.35H10.7V72.45H19.55C20.05 72.45 20.4 72.65 20.6 73.05C20.8333 73.45 20.95 74.0833 20.95 74.95V76.5C20.95 77.3667 20.8333 78 20.6 78.4C20.4 78.8 20.05 79 19.55 79H4.75ZM30.9516 79.4C29.2182 79.4 27.6016 79.1 26.1016 78.5C24.6349 77.9 23.9016 77.1167 23.9016 76.15C23.9016 75.45 24.2182 74.5833 24.8516 73.55C25.5182 72.5167 26.1016 72 26.6016 72C26.7349 72 27.0182 72.1333 27.4516 72.4C27.9182 72.6667 28.3516 72.9 28.7516 73.1C29.1516 73.2667 29.6182 73.35 30.1516 73.35C30.9516 73.35 31.5682 73.1833 32.0016 72.85C32.4349 72.5167 32.6516 72.0667 32.6516 71.5C32.6516 70.8333 32.4349 70.3 32.0016 69.9C31.5682 69.5 30.8849 69.05 29.9516 68.55L28.9516 67.95C27.5182 67.0833 26.3682 66.1333 25.5016 65.1C24.6682 64.0333 24.2516 62.5 24.2516 60.5C24.2516 58 25.0016 56.0333 26.5016 54.6C28.0349 53.1667 30.0349 52.45 32.5016 52.45C34.0349 52.45 35.5016 52.7 36.9016 53.2C38.3016 53.6667 39.0016 54.3833 39.0016 55.35C39.0016 56.0167 38.7516 56.8667 38.2516 57.9C37.7849 58.9 37.3516 59.4 36.9516 59.4C36.8516 59.4 36.4682 59.25 35.8016 58.95C35.1349 58.65 34.4516 58.5 33.7516 58.5C32.0849 58.5 31.2516 59.0667 31.2516 60.2C31.2516 60.7667 31.4516 61.2333 31.8516 61.6C32.2516 61.9333 32.9182 62.3667 33.8516 62.9C34.2849 63.1 34.8182 63.4 35.4516 63.8C36.7516 64.6333 37.7682 65.5833 38.5016 66.65C39.2682 67.7167 39.6516 69.15 39.6516 70.95C39.6516 73.45 38.8682 75.4833 37.3016 77.05C35.7682 78.6167 33.6516 79.4 30.9516 79.4ZM52.7785 79.4C45.7118 79.4 42.1785 74.9333 42.1785 66C42.1785 56.9667 45.7785 52.45 52.9785 52.45C54.1785 52.45 55.3285 52.6167 56.4285 52.95C57.5618 53.25 58.4785 53.6667 59.1785 54.2C59.8785 54.7333 60.2285 55.3 60.2285 55.9C60.2285 56.5 59.9618 57.2833 59.4285 58.25C58.9285 59.2167 58.4452 59.7 57.9785 59.7C57.7785 59.7 57.4618 59.5667 57.0285 59.3C56.4285 59 55.8952 58.7667 55.4285 58.6C54.9619 58.4 54.4118 58.3 53.7785 58.3C52.4118 58.3 51.3952 58.8833 50.7285 60.05C50.0618 61.2167 49.7285 63.1667 49.7285 65.9C49.7285 68.6333 50.0452 70.6 50.6785 71.8C51.3118 72.9667 52.2952 73.55 53.6285 73.55C54.2285 73.55 54.7785 73.4667 55.2785 73.3C55.7785 73.1333 56.1952 72.9667 56.5285 72.8C56.8619 72.6333 57.0785 72.5333 57.1785 72.5C57.6452 72.2667 57.9452 72.15 58.0785 72.15C58.5785 72.15 59.0618 72.6333 59.5285 73.6C60.0285 74.5333 60.2785 75.3167 60.2785 75.95C60.2785 76.5833 59.8619 77.1667 59.0285 77.7C58.1952 78.2333 57.1785 78.65 55.9785 78.95C54.8118 79.25 53.7452 79.4 52.7785 79.4ZM72.7887 79.4C69.4553 79.4 66.922 78.25 65.1887 75.95C63.4553 73.6167 62.5887 70.2667 62.5887 65.9C62.5887 61.5333 63.4387 58.2 65.1387 55.9C66.872 53.6 69.422 52.45 72.7887 52.45C76.1553 52.45 78.7053 53.6 80.4387 55.9C82.172 58.2 83.0387 61.5333 83.0387 65.9C83.0387 70.2667 82.172 73.6167 80.4387 75.95C78.7053 78.25 76.1553 79.4 72.7887 79.4ZM72.8387 73.55C73.8053 73.55 74.4887 72.9833 74.8887 71.85C75.322 70.6833 75.5387 68.7 75.5387 65.9C75.5387 63.1 75.322 61.1333 74.8887 60C74.4887 58.8667 73.8053 58.3 72.8387 58.3C71.8387 58.3 71.122 58.8667 70.6887 60C70.2887 61.1333 70.0887 63.1 70.0887 65.9C70.0887 68.7 70.2887 70.6833 70.6887 71.85C71.122 72.9833 71.8387 73.55 72.8387 73.55ZM93.6668 79.4C89.3668 79.4 87.2168 76.8667 87.2168 71.8V42.9C87.2168 41.8333 88.2168 41.3 90.2168 41.3H91.6168C93.6168 41.3 94.6168 41.8333 94.6168 42.9V71.9C94.6168 72.4667 94.7001 72.8833 94.8668 73.15C95.0668 73.4167 95.3835 73.55 95.8168 73.55C95.9501 73.55 96.1335 73.5167 96.3668 73.45C96.6001 73.3833 96.7835 73.35 96.9168 73.35C97.3501 73.35 97.7001 73.8 97.9668 74.7C98.2335 75.5667 98.3668 76.35 98.3668 77.05C98.3668 77.85 97.8668 78.45 96.8668 78.85C95.9001 79.2167 94.8335 79.4 93.6668 79.4ZM103.643 79.1C101.71 79.1 100.743 78.5667 100.743 77.5V42.9C100.743 41.8333 101.71 41.3 103.643 41.3H105.343C107.277 41.3 108.243 41.8333 108.243 42.9V55.85C108.977 54.85 109.86 54.0333 110.893 53.4C111.96 52.7667 113.16 52.45 114.493 52.45C116.327 52.45 117.727 53.05 118.693 54.25C119.66 55.4167 120.143 57.1333 120.143 59.4V77.5C120.143 78.5667 119.177 79.1 117.243 79.1H115.543C113.61 79.1 112.643 78.5667 112.643 77.5V61.1C112.643 60.2333 112.493 59.6 112.193 59.2C111.893 58.7667 111.393 58.55 110.693 58.55C109.76 58.55 108.943 59.0833 108.243 60.15V77.5C108.243 78.5667 107.277 79.1 105.343 79.1H103.643ZM131.211 79.4C129.011 79.4 127.311 78.7 126.111 77.3C124.944 75.9 124.361 73.9833 124.361 71.55C124.361 65.3167 128.244 62.2167 136.011 62.25V61.45C136.011 60.3833 135.761 59.6 135.261 59.1C134.794 58.5667 134.028 58.3 132.961 58.3C132.228 58.3 131.578 58.4 131.011 58.6C130.444 58.7667 129.811 59.0167 129.111 59.35C128.644 59.6167 128.294 59.75 128.061 59.75C127.728 59.75 127.361 59.5 126.961 59C126.561 58.5 126.211 57.9333 125.911 57.3C125.611 56.6333 125.461 56.1167 125.461 55.75C125.461 55.1833 125.844 54.65 126.611 54.15C127.411 53.6167 128.428 53.2 129.661 52.9C130.928 52.6 132.211 52.45 133.511 52.45C136.978 52.45 139.494 53.2167 141.061 54.75C142.628 56.2833 143.411 58.4 143.411 61.1V70.2C143.411 71.7333 143.444 72.9 143.511 73.7C143.611 74.5 143.728 75.3833 143.861 76.35C143.961 76.7833 144.011 77.15 144.011 77.45C144.011 77.9833 143.328 78.3833 141.961 78.65C140.628 78.9167 139.444 79.05 138.411 79.05C137.878 79.05 137.494 78.85 137.261 78.45C137.061 78.05 136.844 77.4 136.611 76.5C136.178 77.2333 135.494 77.9 134.561 78.5C133.628 79.1 132.511 79.4 131.211 79.4ZM133.461 74.05C133.994 74.05 134.478 73.9 134.911 73.6C135.378 73.3 135.744 72.9 136.011 72.4V66.55C132.678 66.55 131.011 68.0333 131.011 71C131.011 71.9333 131.228 72.6833 131.661 73.25C132.094 73.7833 132.694 74.05 133.461 74.05ZM162.119 79.4C159.919 79.4 158.219 78.7 157.019 77.3C155.852 75.9 155.269 73.9833 155.269 71.55C155.269 65.3167 159.152 62.2167 166.919 62.25V61.45C166.919 60.3833 166.669 59.6 166.169 59.1C165.702 58.5667 164.936 58.3 163.869 58.3C163.136 58.3 162.486 58.4 161.919 58.6C161.352 58.7667 160.719 59.0167 160.019 59.35C159.552 59.6167 159.202 59.75 158.969 59.75C158.636 59.75 158.269 59.5 157.869 59C157.469 58.5 157.119 57.9333 156.819 57.3C156.519 56.6333 156.369 56.1167 156.369 55.75C156.369 55.1833 156.752 54.65 157.519 54.15C158.319 53.6167 159.336 53.2 160.569 52.9C161.836 52.6 163.119 52.45 164.419 52.45C167.886 52.45 170.402 53.2167 171.969 54.75C173.536 56.2833 174.319 58.4 174.319 61.1V70.2C174.319 71.7333 174.352 72.9 174.419 73.7C174.519 74.5 174.636 75.3833 174.769 76.35C174.869 76.7833 174.919 77.15 174.919 77.45C174.919 77.9833 174.236 78.3833 172.869 78.65C171.536 78.9167 170.352 79.05 169.319 79.05C168.786 79.05 168.402 78.85 168.169 78.45C167.969 78.05 167.752 77.4 167.519 76.5C167.086 77.2333 166.402 77.9 165.469 78.5C164.536 79.1 163.419 79.4 162.119 79.4ZM164.369 74.05C164.902 74.05 165.386 73.9 165.819 73.6C166.286 73.3 166.652 72.9 166.919 72.4V66.55C163.586 66.55 161.919 68.0333 161.919 71C161.919 71.9333 162.136 72.6833 162.569 73.25C163.002 73.7833 163.602 74.05 164.369 74.05ZM212.277 52.45C214.111 52.45 215.494 53.05 216.427 54.25C217.361 55.4167 217.827 57.1333 217.827 59.4V77.5C217.827 78.5667 216.861 79.1 214.927 79.1H213.227C211.294 79.1 210.327 78.5667 210.327 77.5V61.1C210.327 60.2333 210.194 59.6 209.927 59.2C209.661 58.7667 209.177 58.55 208.477 58.55C207.611 58.55 206.794 59 206.027 59.9V77.5C206.027 78.5667 205.061 79.1 203.127 79.1H201.427C199.494 79.1 198.527 78.5667 198.527 77.5V61.1C198.527 60.2333 198.394 59.6 198.127 59.2C197.861 58.7667 197.377 58.55 196.677 58.55C195.811 58.55 194.994 59.0833 194.227 60.15V77.5C194.227 78.0333 193.994 78.4333 193.527 78.7C193.061 78.9667 192.344 79.1 191.377 79.1H189.627C187.727 79.1 186.777 78.5667 186.777 77.5V61.55C186.777 59.1833 186.694 57.5 186.527 56.5C186.361 55.5 186.277 54.8833 186.277 54.65C186.277 54.05 186.977 53.6167 188.377 53.35C189.777 53.05 190.994 52.9 192.027 52.9C192.661 52.9 193.077 53.0833 193.277 53.45C193.477 53.8167 193.611 54.3 193.677 54.9C193.777 55.4667 193.861 55.9167 193.927 56.25C194.694 55.15 195.611 54.25 196.677 53.55C197.777 52.8167 199.044 52.45 200.477 52.45C203.111 52.45 204.794 53.6167 205.527 55.95C206.261 54.95 207.194 54.1167 208.327 53.45C209.494 52.7833 210.811 52.45 212.277 52.45ZM233.264 79.4C229.397 79.4 226.547 78.2833 224.714 76.05C222.88 73.7833 221.964 70.4667 221.964 66.1C221.964 61.1667 222.864 57.6667 224.664 55.6C226.497 53.5 229.064 52.45 232.364 52.45C235.63 52.45 237.997 53.6 239.464 55.9C240.93 58.2 241.664 61.5333 241.664 65.9C241.664 66.3 241.314 66.9 240.614 67.7C239.947 68.4667 239.447 68.85 239.114 68.85H229.614C229.68 70.55 230.064 71.7667 230.764 72.5C231.464 73.2 232.414 73.55 233.614 73.55C234.347 73.55 235.014 73.45 235.614 73.25C236.214 73.05 236.797 72.8167 237.364 72.55C237.93 72.25 238.28 72.1 238.414 72.1C238.747 72.1 239.114 72.35 239.514 72.85C239.947 73.3167 240.297 73.8667 240.564 74.5C240.864 75.1 241.014 75.5667 241.014 75.9C241.014 76.6667 240.564 77.3167 239.664 77.85C238.764 78.35 237.697 78.7333 236.464 79C235.264 79.2667 234.197 79.4 233.264 79.4ZM234.914 64.4C234.914 62.0333 234.714 60.35 234.314 59.35C233.914 58.3167 233.247 57.8 232.314 57.8C231.414 57.8 230.714 58.2833 230.214 59.25C229.747 60.2167 229.447 61.9333 229.314 64.4H234.914ZM251.919 79.4C247.619 79.4 245.469 76.8667 245.469 71.8V42.9C245.469 41.8333 246.469 41.3 248.469 41.3H249.869C251.869 41.3 252.869 41.8333 252.869 42.9V71.9C252.869 72.4667 252.952 72.8833 253.119 73.15C253.319 73.4167 253.635 73.55 254.069 73.55C254.202 73.55 254.385 73.5167 254.619 73.45C254.852 73.3833 255.035 73.35 255.169 73.35C255.602 73.35 255.952 73.8 256.219 74.7C256.485 75.5667 256.619 76.35 256.619 77.05C256.619 77.85 256.119 78.45 255.119 78.85C254.152 79.2167 253.085 79.4 251.919 79.4ZM261.895 79.1C259.962 79.1 258.995 78.5667 258.995 77.5V42.9C258.995 41.8333 259.962 41.3 261.895 41.3H263.595C265.529 41.3 266.495 41.8333 266.495 42.9V55.85C267.229 54.85 268.112 54.0333 269.145 53.4C270.212 52.7667 271.412 52.45 272.745 52.45C274.579 52.45 275.979 53.05 276.945 54.25C277.912 55.4167 278.395 57.1333 278.395 59.4V77.5C278.395 78.5667 277.429 79.1 275.495 79.1H273.795C271.862 79.1 270.895 78.5667 270.895 77.5V61.1C270.895 60.2333 270.745 59.6 270.445 59.2C270.145 58.7667 269.645 58.55 268.945 58.55C268.012 58.55 267.195 59.0833 266.495 60.15V77.5C266.495 78.5667 265.529 79.1 263.595 79.1H261.895ZM292.613 79.4C289.28 79.4 286.746 78.25 285.013 75.95C283.28 73.6167 282.413 70.2667 282.413 65.9C282.413 61.5333 283.263 58.2 284.963 55.9C286.696 53.6 289.246 52.45 292.613 52.45C295.98 52.45 298.53 53.6 300.263 55.9C301.996 58.2 302.863 61.5333 302.863 65.9C302.863 70.2667 301.996 73.6167 300.263 75.95C298.53 78.25 295.98 79.4 292.613 79.4ZM292.663 73.55C293.63 73.55 294.313 72.9833 294.713 71.85C295.146 70.6833 295.363 68.7 295.363 65.9C295.363 63.1 295.146 61.1333 294.713 60C294.313 58.8667 293.63 58.3 292.663 58.3C291.663 58.3 290.946 58.8667 290.513 60C290.113 61.1333 289.913 63.1 289.913 65.9C289.913 68.7 290.113 70.6833 290.513 71.85C290.946 72.9833 291.663 73.55 292.663 73.55ZM310.291 79.1C308.291 79.1 307.291 78.5667 307.291 77.5V61.55C307.291 60.0833 307.241 58.9667 307.141 58.2C307.074 57.4 306.974 56.5167 306.841 55.55C306.741 55.0833 306.691 54.7333 306.691 54.5C306.691 53.9667 307.358 53.5667 308.691 53.3C310.058 53.0333 311.258 52.9 312.291 52.9C312.891 52.9 313.308 53.1333 313.541 53.6C313.774 54.0667 313.941 54.5833 314.041 55.15C314.174 55.6833 314.258 56.05 314.291 56.25C314.758 55.0833 315.308 54.1667 315.941 53.5C316.574 52.8 317.441 52.45 318.541 52.45C319.474 52.45 320.091 52.6667 320.391 53.1C320.724 53.5 320.891 54.1833 320.891 55.15C320.891 55.8833 320.758 56.8167 320.491 57.95C320.258 59.0833 319.958 59.65 319.591 59.65C319.391 59.65 319.041 59.5833 318.541 59.45C318.041 59.3167 317.608 59.25 317.241 59.25C316.608 59.25 316.074 59.4833 315.641 59.95C315.208 60.4167 314.891 61.0167 314.691 61.75V77.5C314.691 78.5667 313.691 79.1 311.691 79.1H310.291ZM340.123 79.4C336.789 79.4 334.256 78.25 332.523 75.95C330.789 73.6167 329.923 70.2667 329.923 65.9C329.923 61.5333 330.773 58.2 332.473 55.9C334.206 53.6 336.756 52.45 340.123 52.45C343.489 52.45 346.039 53.6 347.773 55.9C349.506 58.2 350.373 61.5333 350.373 65.9C350.373 70.2667 349.506 73.6167 347.773 75.95C346.039 78.25 343.489 79.4 340.123 79.4ZM340.173 73.55C341.139 73.55 341.823 72.9833 342.223 71.85C342.656 70.6833 342.873 68.7 342.873 65.9C342.873 63.1 342.656 61.1333 342.223 60C341.823 58.8667 341.139 58.3 340.173 58.3C339.173 58.3 338.456 58.8667 338.023 60C337.623 61.1333 337.423 63.1 337.423 65.9C337.423 68.7 337.623 70.6833 338.023 71.85C338.456 72.9833 339.173 73.55 340.173 73.55ZM357.651 89.3C355.651 89.3 354.651 88.7667 354.651 87.7V61.65C354.651 60.1167 354.601 58.9667 354.501 58.2C354.434 57.4 354.334 56.5167 354.201 55.55C354.101 55.0833 354.051 54.7333 354.051 54.5C354.051 53.9667 354.717 53.5667 356.051 53.3C357.417 53.0333 358.617 52.9 359.651 52.9C360.317 52.9 360.767 53.1667 361.001 53.7C361.267 54.2333 361.501 54.9833 361.701 55.95C362.201 54.9167 362.917 54.0833 363.851 53.45C364.784 52.7833 365.834 52.45 367.001 52.45C368.467 52.45 369.751 52.9833 370.851 54.05C371.984 55.0833 372.867 56.6333 373.501 58.7C374.167 60.7333 374.501 63.1833 374.501 66.05C374.501 70.3167 373.767 73.6167 372.301 75.95C370.834 78.25 368.784 79.4 366.151 79.4C364.517 79.4 363.151 78.9167 362.051 77.95V87.7C362.051 88.7667 361.051 89.3 359.051 89.3H357.651ZM364.101 73.55C365.101 73.55 365.834 72.9667 366.301 71.8C366.767 70.6 367.001 68.6333 367.001 65.9C367.001 63.3 366.801 61.4167 366.401 60.25C366.001 59.0833 365.367 58.5 364.501 58.5C363.534 58.5 362.717 59.1667 362.051 60.5V72.85C362.717 73.3167 363.401 73.55 364.101 73.55ZM396.07 75.95C396.07 76.7167 395.47 77.4 394.27 78C393.103 78.6 391.786 79.0167 390.32 79.25L389.67 81.6C390.67 81.7667 391.453 82.15 392.02 82.75C392.586 83.35 392.87 84.1 392.87 85C392.87 86.5 392.37 87.6333 391.37 88.4C390.37 89.2 388.886 89.6 386.92 89.6C385.853 89.6 384.853 89.4 383.92 89C382.986 88.6333 382.52 88.15 382.52 87.55C382.52 87.0167 382.686 86.5667 383.02 86.2C383.353 85.8667 383.653 85.7 383.92 85.7C384.186 85.7 384.52 85.7833 384.92 85.95C385.02 85.9833 385.27 86.05 385.67 86.15C386.103 86.2833 386.57 86.35 387.07 86.35C388.203 86.35 388.77 85.9167 388.77 85.05C388.77 84.65 388.62 84.3333 388.32 84.1C388.02 83.9 387.62 83.7167 387.12 83.55C387.053 83.5167 386.903 83.45 386.67 83.35C386.47 83.25 386.32 83.15 386.22 83.05C386.12 82.9833 386.07 82.8833 386.07 82.75C386.07 82.5167 386.403 81.3833 387.07 79.35C381.003 78.6833 377.97 74.2333 377.97 66C377.97 56.9667 381.57 52.45 388.77 52.45C389.97 52.45 391.12 52.6167 392.22 52.95C393.353 53.25 394.27 53.6667 394.97 54.2C395.67 54.7333 396.02 55.3 396.02 55.9C396.02 56.5 395.753 57.2833 395.22 58.25C394.72 59.2167 394.236 59.7 393.77 59.7C393.57 59.7 393.253 59.5667 392.82 59.3C392.22 59 391.686 58.7667 391.22 58.6C390.753 58.4 390.203 58.3 389.57 58.3C388.203 58.3 387.186 58.8833 386.52 60.05C385.853 61.2167 385.52 63.1667 385.52 65.9C385.52 68.6333 385.836 70.6 386.47 71.8C387.103 72.9667 388.086 73.55 389.42 73.55C390.02 73.55 390.57 73.4667 391.07 73.3C391.57 73.1333 391.986 72.9667 392.32 72.8C392.653 72.6333 392.87 72.5333 392.97 72.5C393.436 72.2667 393.736 72.15 393.87 72.15C394.37 72.15 394.853 72.6333 395.32 73.6C395.82 74.5333 396.07 75.3167 396.07 75.95ZM405.43 79.4C403.23 79.4 401.53 78.7 400.33 77.3C399.163 75.9 398.58 73.9833 398.58 71.55C398.58 65.3167 402.463 62.2167 410.23 62.25V61.45C410.23 60.3833 409.98 59.6 409.48 59.1C409.013 58.5667 408.246 58.3 407.18 58.3C406.446 58.3 405.796 58.4 405.23 58.6C404.663 58.7667 404.03 59.0167 403.33 59.35C402.863 59.6167 402.513 59.75 402.28 59.75C401.946 59.75 401.58 59.5 401.18 59C400.78 58.5 400.43 57.9333 400.13 57.3C399.83 56.6333 399.68 56.1167 399.68 55.75C399.68 55.1833 400.063 54.65 400.83 54.15C401.63 53.6167 402.646 53.2 403.88 52.9C405.146 52.6 406.43 52.45 407.73 52.45C411.196 52.45 413.713 53.2167 415.28 54.75C416.846 56.2833 417.63 58.4 417.63 61.1V70.2C417.63 71.7333 417.663 72.9 417.73 73.7C417.83 74.5 417.946 75.3833 418.08 76.35C418.18 76.7833 418.23 77.15 418.23 77.45C418.23 77.9833 417.546 78.3833 416.18 78.65C414.846 78.9167 413.663 79.05 412.63 79.05C412.096 79.05 411.713 78.85 411.48 78.45C411.28 78.05 411.063 77.4 410.83 76.5C410.396 77.2333 409.713 77.9 408.78 78.5C407.846 79.1 406.73 79.4 405.43 79.4ZM407.68 74.05C408.213 74.05 408.696 73.9 409.13 73.6C409.596 73.3 409.963 72.9 410.23 72.4V66.55C406.896 66.55 405.23 68.0333 405.23 71C405.23 71.9333 405.446 72.6833 405.88 73.25C406.313 73.7833 406.913 74.05 407.68 74.05ZM402.73 49.7C402.43 49.7 401.996 49.5667 401.43 49.3C400.896 49 400.63 48.6667 400.63 48.3C400.63 48.1667 400.646 47.9833 400.68 47.75C400.746 47.5167 400.813 47.3 400.88 47.1C401.846 44.9 403.33 43.8 405.33 43.8C406.33 43.8 407.563 44.1167 409.03 44.75C410.096 45.1833 410.863 45.4 411.33 45.4C411.663 45.4 411.946 45.3333 412.18 45.2C412.413 45.0333 412.663 44.8 412.93 44.5C412.963 44.4667 413.063 44.3667 413.23 44.2C413.43 44 413.646 43.9 413.88 43.9C414.28 43.9 414.763 44.0833 415.33 44.45C415.93 44.7833 416.23 45.1167 416.23 45.45C416.23 45.65 416.113 46.05 415.88 46.65C415.513 47.55 414.913 48.2833 414.08 48.85C413.28 49.4167 412.396 49.7 411.43 49.7C410.83 49.7 410.246 49.6333 409.68 49.5C409.146 49.3333 408.53 49.1 407.83 48.8C406.73 48.3667 405.896 48.15 405.33 48.15C404.963 48.15 404.646 48.2333 404.38 48.4C404.146 48.5667 403.896 48.8 403.63 49.1C403.596 49.1333 403.48 49.25 403.28 49.45C403.113 49.6167 402.93 49.7 402.73 49.7ZM432.652 79.4C429.319 79.4 426.785 78.25 425.052 75.95C423.319 73.6167 422.452 70.2667 422.452 65.9C422.452 61.5333 423.302 58.2 425.002 55.9C426.735 53.6 429.285 52.45 432.652 52.45C436.019 52.45 438.569 53.6 440.302 55.9C442.035 58.2 442.902 61.5333 442.902 65.9C442.902 70.2667 442.035 73.6167 440.302 75.95C438.569 78.25 436.019 79.4 432.652 79.4ZM432.702 73.55C433.669 73.55 434.352 72.9833 434.752 71.85C435.185 70.6833 435.402 68.7 435.402 65.9C435.402 63.1 435.185 61.1333 434.752 60C434.352 58.8667 433.669 58.3 432.702 58.3C431.702 58.3 430.985 58.8667 430.552 60C430.152 61.1333 429.952 63.1 429.952 65.9C429.952 68.7 430.152 70.6833 430.552 71.85C430.985 72.9833 431.702 73.55 432.702 73.55ZM450.53 67.9C449.497 67.9 448.797 67.7833 448.43 67.55C448.097 67.2833 447.93 66.8667 447.93 66.3V45.5C447.93 44.4333 448.897 43.9 450.83 43.9H453.13C454.03 43.9 454.73 44.0333 455.23 44.3C455.763 44.5333 456.03 44.8667 456.03 45.3L453.48 66.3C453.38 66.9 453.18 67.3167 452.88 67.55C452.58 67.7833 451.93 67.9 450.93 67.9H450.53ZM449.83 79.1C447.897 79.1 446.93 78.5667 446.93 77.5V72.9C446.93 71.8333 447.897 71.3 449.83 71.3H451.48C453.413 71.3 454.38 71.8333 454.38 72.9V77.5C454.38 78.5667 453.413 79.1 451.48 79.1H449.83Z" fill="#BC0406"/>
<path d="M58.082 106.047H62.2275V109.899H58.082V115.861H54.1562V109.899H49.9375V106.047H54.1562V100.334H58.082V106.047ZM82.8965 109.299H76.2021V118H71.8955V96.6719H83.7021V100.261H76.2021V105.725H82.8965V109.299ZM93.3994 106.149L92.0225 106.032C90.8896 106.032 90.123 106.53 89.7227 107.526V118H85.5625V102.15H89.4736L89.5908 103.864C90.2451 102.526 91.1484 101.857 92.3008 101.857C92.7695 101.857 93.1504 101.921 93.4434 102.048L93.3994 106.149ZM101.646 118.293C99.5176 118.293 97.8574 117.658 96.666 116.389C95.4746 115.119 94.8789 113.303 94.8789 110.939V109.68C94.8789 107.18 95.4258 105.251 96.5195 103.894C97.6133 102.536 99.1807 101.857 101.222 101.857C103.214 101.857 104.713 102.497 105.719 103.776C106.725 105.046 107.237 106.931 107.257 109.431V111.467H99.0098C99.0684 112.639 99.3271 113.498 99.7861 114.045C100.245 114.582 100.953 114.851 101.91 114.851C103.297 114.851 104.454 114.377 105.382 113.43L107.008 115.935C106.5 116.638 105.763 117.209 104.796 117.648C103.829 118.078 102.779 118.293 101.646 118.293ZM99.0391 108.566H103.185V108.186C103.165 107.238 103.009 106.521 102.716 106.032C102.423 105.544 101.915 105.3 101.192 105.3C100.47 105.3 99.9424 105.559 99.6104 106.076C99.2881 106.594 99.0977 107.424 99.0391 108.566ZM114.42 98.2539V102.15H116.544V105.271H114.42V113.137C114.42 113.762 114.503 114.191 114.669 114.426C114.845 114.66 115.177 114.777 115.665 114.777C116.065 114.777 116.393 114.743 116.646 114.675L116.617 117.897C115.914 118.161 115.152 118.293 114.332 118.293C111.656 118.293 110.304 116.76 110.274 113.693V105.271H108.443V102.15H110.274V98.2539H114.42ZM125.23 118.293C123.102 118.293 121.441 117.658 120.25 116.389C119.059 115.119 118.463 113.303 118.463 110.939V109.68C118.463 107.18 119.01 105.251 120.104 103.894C121.197 102.536 122.765 101.857 124.806 101.857C126.798 101.857 128.297 102.497 129.303 103.776C130.309 105.046 130.821 106.931 130.841 109.431V111.467H122.594C122.652 112.639 122.911 113.498 123.37 114.045C123.829 114.582 124.537 114.851 125.494 114.851C126.881 114.851 128.038 114.377 128.966 113.43L130.592 115.935C130.084 116.638 129.347 117.209 128.38 117.648C127.413 118.078 126.363 118.293 125.23 118.293ZM122.623 108.566H126.769V108.186C126.749 107.238 126.593 106.521 126.3 106.032C126.007 105.544 125.499 105.3 124.776 105.3C124.054 105.3 123.526 105.559 123.194 106.076C122.872 106.594 122.682 107.424 122.623 108.566ZM154.806 115.583C153.976 116.481 152.955 117.16 151.744 117.619C150.543 118.068 149.225 118.293 147.789 118.293C145.338 118.293 143.434 117.536 142.076 116.022C140.719 114.499 140.021 112.287 139.981 109.387V105.549C139.981 102.609 140.621 100.349 141.9 98.7666C143.189 97.1748 145.064 96.3789 147.525 96.3789C149.84 96.3789 151.583 96.9502 152.755 98.0928C153.937 99.2354 154.62 101.027 154.806 103.469H150.616C150.499 102.111 150.216 101.188 149.767 100.7C149.317 100.202 148.614 99.9531 147.657 99.9531C146.495 99.9531 145.65 100.378 145.123 101.228C144.596 102.077 144.322 103.43 144.303 105.285V109.152C144.303 111.096 144.591 112.512 145.167 113.4C145.753 114.279 146.71 114.719 148.038 114.719C148.888 114.719 149.576 114.548 150.104 114.206L150.484 113.942V110.031H147.467V106.779H154.806V115.583ZM165.47 106.149L164.093 106.032C162.96 106.032 162.193 106.53 161.793 107.526V118H157.633V102.15H161.544L161.661 103.864C162.315 102.526 163.219 101.857 164.371 101.857C164.84 101.857 165.221 101.921 165.514 102.048L165.47 106.149ZM174.698 118C174.581 117.756 174.464 117.346 174.347 116.77C173.604 117.785 172.599 118.293 171.329 118.293C170.001 118.293 168.897 117.854 168.019 116.975C167.149 116.096 166.715 114.958 166.715 113.562C166.715 111.901 167.242 110.617 168.297 109.709C169.361 108.801 170.89 108.337 172.882 108.317H174.142V107.043C174.142 106.33 174.02 105.827 173.775 105.534C173.531 105.241 173.175 105.095 172.706 105.095C171.671 105.095 171.153 105.7 171.153 106.911H167.008C167.008 105.446 167.555 104.24 168.648 103.293C169.752 102.336 171.144 101.857 172.823 101.857C174.562 101.857 175.904 102.312 176.852 103.22C177.809 104.118 178.287 105.407 178.287 107.087V114.543C178.307 115.91 178.502 116.979 178.873 117.751V118H174.698ZM172.252 115.041C172.711 115.041 173.102 114.948 173.424 114.763C173.746 114.577 173.985 114.357 174.142 114.104V110.808H173.146C172.442 110.808 171.886 111.032 171.476 111.481C171.075 111.931 170.875 112.531 170.875 113.283C170.875 114.455 171.334 115.041 172.252 115.041ZM173.497 95.5H178.155L174.083 100.041H170.626L173.497 95.5ZM186.109 98.2539V102.15H188.233V105.271H186.109V113.137C186.109 113.762 186.192 114.191 186.358 114.426C186.534 114.66 186.866 114.777 187.354 114.777C187.755 114.777 188.082 114.743 188.336 114.675L188.307 117.897C187.604 118.161 186.842 118.293 186.021 118.293C183.346 118.293 181.993 116.76 181.964 113.693V105.271H180.133V102.15H181.964V98.2539H186.109ZM194.869 118H190.709V102.15H194.869V118ZM190.519 98.0488C190.519 97.4043 190.724 96.877 191.134 96.4668C191.544 96.0566 192.091 95.8516 192.774 95.8516C193.458 95.8516 194.005 96.0566 194.415 96.4668C194.825 96.877 195.03 97.4043 195.03 98.0488C195.03 98.6836 194.825 99.2109 194.415 99.6309C194.015 100.051 193.468 100.261 192.774 100.261C192.081 100.261 191.529 100.051 191.119 99.6309C190.719 99.2109 190.519 98.6836 190.519 98.0488ZM205.094 113.752C205.094 113.4 204.923 113.078 204.581 112.785C204.249 112.482 203.502 112.077 202.34 111.569C200.631 110.876 199.454 110.158 198.81 109.416C198.175 108.674 197.857 107.751 197.857 106.647C197.857 105.261 198.355 104.118 199.352 103.22C200.357 102.312 201.686 101.857 203.336 101.857C205.074 101.857 206.466 102.307 207.511 103.205C208.556 104.104 209.078 105.31 209.078 106.823H204.933C204.933 105.534 204.396 104.89 203.321 104.89C202.882 104.89 202.521 105.026 202.237 105.3C201.954 105.573 201.812 105.954 201.812 106.442C201.812 106.794 201.969 107.106 202.281 107.38C202.594 107.644 203.331 108.024 204.493 108.522C206.183 109.147 207.374 109.846 208.067 110.617C208.771 111.379 209.122 112.37 209.122 113.591C209.122 115.007 208.59 116.145 207.525 117.004C206.461 117.863 205.064 118.293 203.336 118.293C202.174 118.293 201.148 118.068 200.26 117.619C199.371 117.16 198.673 116.525 198.165 115.715C197.667 114.904 197.418 114.03 197.418 113.093H201.358C201.378 113.815 201.544 114.357 201.856 114.719C202.179 115.08 202.701 115.261 203.424 115.261C204.537 115.261 205.094 114.758 205.094 113.752Z" fill="#00AE26"/>
<path d="M230.465 110.837C230.465 113.347 230.011 115.217 229.103 116.447C228.204 117.678 226.93 118.293 225.279 118.293C223.688 118.293 222.462 117.692 221.603 116.491V124.094H219.024V102.15H221.368L221.5 103.908C222.369 102.541 223.614 101.857 225.235 101.857C226.974 101.857 228.272 102.463 229.132 103.674C229.991 104.885 230.436 106.696 230.465 109.108V110.837ZM227.887 109.357C227.887 107.58 227.613 106.271 227.066 105.432C226.52 104.582 225.641 104.157 224.43 104.157C223.189 104.157 222.247 104.777 221.603 106.018V114.265C222.237 115.476 223.189 116.081 224.459 116.081C225.631 116.081 226.49 115.661 227.037 114.821C227.594 113.972 227.877 112.678 227.887 110.939V109.357ZM241.964 118C241.808 117.658 241.695 117.082 241.627 116.271C240.709 117.619 239.537 118.293 238.111 118.293C236.676 118.293 235.553 117.893 234.742 117.092C233.941 116.281 233.541 115.144 233.541 113.679C233.541 112.067 234.088 110.788 235.182 109.841C236.275 108.894 237.774 108.41 239.679 108.391H241.583V106.706C241.583 105.759 241.373 105.085 240.953 104.685C240.533 104.284 239.894 104.084 239.034 104.084C238.253 104.084 237.618 104.318 237.13 104.787C236.642 105.246 236.397 105.832 236.397 106.545H233.805C233.805 105.734 234.044 104.963 234.522 104.23C235.001 103.488 235.646 102.907 236.456 102.487C237.267 102.067 238.17 101.857 239.166 101.857C240.787 101.857 242.018 102.263 242.857 103.073C243.707 103.874 244.142 105.046 244.161 106.589V114.587C244.171 115.808 244.337 116.867 244.659 117.766V118H241.964ZM238.507 115.935C239.142 115.935 239.747 115.759 240.323 115.407C240.899 115.056 241.319 114.616 241.583 114.089V110.31H240.118C238.888 110.329 237.916 110.607 237.203 111.145C236.49 111.672 236.134 112.414 236.134 113.371C236.134 114.27 236.314 114.924 236.676 115.334C237.037 115.734 237.647 115.935 238.507 115.935ZM254.737 104.582C254.376 104.514 253.985 104.479 253.565 104.479C252.237 104.479 251.31 105.207 250.782 106.662V118H248.189V102.15H250.709L250.753 103.762C251.446 102.492 252.428 101.857 253.697 101.857C254.107 101.857 254.449 101.926 254.723 102.062L254.737 104.582ZM264.903 118C264.747 117.658 264.635 117.082 264.566 116.271C263.648 117.619 262.477 118.293 261.051 118.293C259.615 118.293 258.492 117.893 257.682 117.092C256.881 116.281 256.48 115.144 256.48 113.679C256.48 112.067 257.027 110.788 258.121 109.841C259.215 108.894 260.714 108.41 262.618 108.391H264.522V106.706C264.522 105.759 264.312 105.085 263.893 104.685C263.473 104.284 262.833 104.084 261.974 104.084C261.192 104.084 260.558 104.318 260.069 104.787C259.581 105.246 259.337 105.832 259.337 106.545H256.744C256.744 105.734 256.983 104.963 257.462 104.23C257.94 103.488 258.585 102.907 259.396 102.487C260.206 102.067 261.109 101.857 262.105 101.857C263.727 101.857 264.957 102.263 265.797 103.073C266.646 103.874 267.081 105.046 267.101 106.589V114.587C267.11 115.808 267.276 116.867 267.599 117.766V118H264.903ZM261.446 115.935C262.081 115.935 262.687 115.759 263.263 115.407C263.839 115.056 264.259 114.616 264.522 114.089V110.31H263.058C261.827 110.329 260.855 110.607 260.143 111.145C259.43 111.672 259.073 112.414 259.073 113.371C259.073 114.27 259.254 114.924 259.615 115.334C259.977 115.734 260.587 115.935 261.446 115.935ZM281.412 98.3125V102.15H283.8V104.245H281.412V114.074C281.412 114.699 281.515 115.173 281.72 115.495C281.925 115.817 282.276 115.979 282.774 115.979C283.116 115.979 283.463 115.92 283.814 115.803L283.785 118C283.199 118.195 282.599 118.293 281.983 118.293C280.958 118.293 280.177 117.927 279.64 117.194C279.103 116.462 278.834 115.427 278.834 114.089V104.245H276.417V102.15H278.834V98.3125H281.412ZM286.056 109.343C286.056 107.038 286.612 105.217 287.726 103.879C288.849 102.531 290.328 101.857 292.164 101.857C294 101.857 295.475 102.512 296.588 103.82C297.711 105.129 298.287 106.911 298.316 109.167V110.837C298.316 113.132 297.76 114.948 296.646 116.286C295.533 117.624 294.049 118.293 292.193 118.293C290.357 118.293 288.883 117.644 287.77 116.345C286.666 115.046 286.095 113.288 286.056 111.071V109.343ZM288.648 110.837C288.648 112.468 288.966 113.752 289.601 114.689C290.245 115.617 291.109 116.081 292.193 116.081C294.479 116.081 295.655 114.431 295.724 111.13V109.343C295.724 107.722 295.401 106.442 294.757 105.505C294.112 104.558 293.248 104.084 292.164 104.084C291.1 104.084 290.245 104.558 289.601 105.505C288.966 106.442 288.648 107.717 288.648 109.328V110.837ZM301.114 109.357C301.114 106.916 301.568 105.056 302.477 103.776C303.395 102.497 304.708 101.857 306.417 101.857C307.931 101.857 309.112 102.473 309.962 103.703V95.5H312.555V118H310.182L310.05 116.301C309.2 117.629 307.984 118.293 306.402 118.293C304.762 118.293 303.473 117.658 302.535 116.389C301.607 115.109 301.134 113.308 301.114 110.983V109.357ZM303.707 110.837C303.707 112.614 303.971 113.923 304.498 114.763C305.025 115.593 305.885 116.008 307.076 116.008C308.365 116.008 309.327 115.358 309.962 114.06V106.062C309.298 104.792 308.341 104.157 307.091 104.157C305.899 104.157 305.04 104.577 304.513 105.417C303.985 106.247 303.717 107.526 303.707 109.255V110.837ZM315.997 109.343C315.997 107.038 316.554 105.217 317.667 103.879C318.79 102.531 320.27 101.857 322.105 101.857C323.941 101.857 325.416 102.512 326.529 103.82C327.652 105.129 328.229 106.911 328.258 109.167V110.837C328.258 113.132 327.701 114.948 326.588 116.286C325.475 117.624 323.99 118.293 322.135 118.293C320.299 118.293 318.824 117.644 317.711 116.345C316.607 115.046 316.036 113.288 315.997 111.071V109.343ZM318.59 110.837C318.59 112.468 318.907 113.752 319.542 114.689C320.187 115.617 321.051 116.081 322.135 116.081C324.42 116.081 325.597 114.431 325.665 111.13V109.343C325.665 107.722 325.343 106.442 324.698 105.505C324.054 104.558 323.189 104.084 322.105 104.084C321.041 104.084 320.187 104.558 319.542 105.505C318.907 106.442 318.59 107.717 318.59 109.328V110.837ZM338.849 118V96.6719H344.928C346.871 96.6719 348.331 97.1455 349.308 98.0928C350.294 99.04 350.787 100.461 350.787 102.355C350.787 103.352 350.538 104.23 350.04 104.992C349.542 105.754 348.868 106.345 348.019 106.765C348.995 107.058 349.767 107.658 350.333 108.566C350.909 109.475 351.197 110.568 351.197 111.848C351.197 113.762 350.67 115.266 349.615 116.359C348.57 117.453 347.076 118 345.133 118H338.849ZM341.529 108.024V115.7H345.191C346.207 115.7 347.013 115.368 347.608 114.704C348.204 114.03 348.502 113.088 348.502 111.877C348.502 109.309 347.418 108.024 345.25 108.024H341.529ZM341.529 105.769H344.972C345.899 105.769 346.646 105.456 347.213 104.831C347.789 104.206 348.077 103.376 348.077 102.341C348.077 101.169 347.818 100.319 347.301 99.792C346.783 99.2549 345.992 98.9863 344.928 98.9863H341.529V105.769ZM361.407 104.582C361.046 104.514 360.655 104.479 360.235 104.479C358.907 104.479 357.979 105.207 357.452 106.662V118H354.859V102.15H357.379L357.423 103.762C358.116 102.492 359.098 101.857 360.367 101.857C360.777 101.857 361.119 101.926 361.393 102.062L361.407 104.582ZM371.573 118C371.417 117.658 371.305 117.082 371.236 116.271C370.318 117.619 369.146 118.293 367.721 118.293C366.285 118.293 365.162 117.893 364.352 117.092C363.551 116.281 363.15 115.144 363.15 113.679C363.15 112.067 363.697 110.788 364.791 109.841C365.885 108.894 367.384 108.41 369.288 108.391H371.192V106.706C371.192 105.759 370.982 105.085 370.562 104.685C370.143 104.284 369.503 104.084 368.644 104.084C367.862 104.084 367.228 104.318 366.739 104.787C366.251 105.246 366.007 105.832 366.007 106.545H363.414C363.414 105.734 363.653 104.963 364.132 104.23C364.61 103.488 365.255 102.907 366.065 102.487C366.876 102.067 367.779 101.857 368.775 101.857C370.396 101.857 371.627 102.263 372.467 103.073C373.316 103.874 373.751 105.046 373.771 106.589V114.587C373.78 115.808 373.946 116.867 374.269 117.766V118H371.573ZM368.116 115.935C368.751 115.935 369.356 115.759 369.933 115.407C370.509 115.056 370.929 114.616 371.192 114.089V110.31H369.728C368.497 110.329 367.525 110.607 366.812 111.145C366.1 111.672 365.743 112.414 365.743 113.371C365.743 114.27 365.924 114.924 366.285 115.334C366.646 115.734 367.257 115.935 368.116 115.935ZM385.504 113.942C385.504 113.386 385.294 112.907 384.874 112.507C384.454 112.106 383.644 111.638 382.442 111.101C381.046 110.524 380.06 110.031 379.483 109.621C378.917 109.211 378.492 108.747 378.209 108.229C377.926 107.702 377.784 107.077 377.784 106.354C377.784 105.065 378.253 103.996 379.19 103.146C380.138 102.287 381.344 101.857 382.809 101.857C384.352 101.857 385.592 102.307 386.529 103.205C387.467 104.104 387.936 105.256 387.936 106.662H385.357C385.357 105.949 385.118 105.344 384.64 104.846C384.161 104.338 383.551 104.084 382.809 104.084C382.047 104.084 381.446 104.284 381.007 104.685C380.577 105.075 380.362 105.603 380.362 106.267C380.362 106.794 380.519 107.219 380.831 107.541C381.153 107.863 381.92 108.288 383.131 108.815C385.055 109.567 386.363 110.305 387.057 111.027C387.75 111.74 388.097 112.648 388.097 113.752C388.097 115.129 387.623 116.232 386.676 117.062C385.729 117.883 384.459 118.293 382.867 118.293C381.217 118.293 379.879 117.819 378.854 116.872C377.828 115.925 377.315 114.724 377.315 113.269H379.923C379.952 114.147 380.221 114.836 380.729 115.334C381.236 115.832 381.949 116.081 382.867 116.081C383.727 116.081 384.381 115.891 384.83 115.51C385.279 115.119 385.504 114.597 385.504 113.942ZM394.278 118H391.686V102.15H394.278V118ZM394.483 97.9463C394.483 98.3857 394.361 98.752 394.117 99.0449C393.873 99.3379 393.502 99.4844 393.004 99.4844C392.516 99.4844 392.149 99.3379 391.905 99.0449C391.661 98.752 391.539 98.3857 391.539 97.9463C391.539 97.5068 391.661 97.1357 391.905 96.833C392.149 96.5303 392.516 96.3789 393.004 96.3789C393.492 96.3789 393.858 96.5352 394.103 96.8477C394.356 97.1504 394.483 97.5166 394.483 97.9463ZM401.163 118H398.57V95.5H401.163V118Z" fill="#BC0406"/>
<path d="M207 136C196.673 126.945 151.815 114.267 55 136" stroke="#00AE26" stroke-width="4"/>
</svg>
