<svg width="505" height="72" viewBox="0 0 505 72" fill="none" xmlns="http://www.w3.org/2000/svg">
<rect y="28" width="210" height="8" rx="4" fill="#BC0406"/>
<rect x="295" y="28" width="210" height="8" rx="4" fill="#BC0406"/>
<path d="M255.002 71.3844L279 49.7856C279.509 49.3248 279.797 48.6817 279.797 48.0001L279.797 33.6009C279.797 32.6553 279.24 31.7962 278.376 31.4074C277.508 31.0234 276.495 31.1818 275.794 31.8154L253.399 51.9695L231.008 31.8154C230.302 31.1818 229.289 31.0186 228.426 31.4074C227.557 31.7962 227 32.6553 227 33.6009L227 48.0001C227 48.6817 227.293 49.3248 227.792 49.7856L251.791 71.3844C252.703 72.2052 254.095 72.2052 255.002 71.3844Z" fill="#BC0406"/>
<path d="M255.002 40.1861L279 18.5873C279.509 18.1265 279.797 17.4834 279.797 16.8018L279.797 2.40257C279.797 1.45702 279.24 0.597867 278.376 0.209088C277.508 -0.174892 276.495 -0.0165003 275.794 0.617065L253.399 20.7712L231.008 0.617064C230.302 -0.0165024 229.289 -0.179694 228.426 0.209085C227.557 0.597864 227 1.45702 227 2.40257L227 16.8018C227 17.4834 227.293 18.1265 227.792 18.5873L251.791 40.1861C252.703 41.0069 254.095 41.0069 255.002 40.1861Z" fill="#BC0406"/>
</svg>
